<svg width="172" height="56" viewBox="0 0 172 56" fill="none" xmlns="http://www.w3.org/2000/svg">
<path fill-rule="evenodd" clip-rule="evenodd" d="M23.5458 40.6792C23.5458 41.1743 23.2643 43.0776 22.9827 44C24.015 42.8931 26.1358 40.6239 26.361 40.4025C26.5862 40.1811 27.2055 39.7568 27.4871 39.5723L33.399 37.6352C34.0746 37.4138 37.2464 36.0671 38.7478 35.4214C39.3109 35.0524 40.4932 34.2038 40.7185 33.761C40.9437 33.3183 41 32.6541 41 32.3773C40.7748 31.4918 40.7185 31.4549 40.7185 31.5471C37.9033 29.61 35.9326 27.6729 33.1175 24.0755C31.0058 20.0838 29.3316 17.4739 28.2028 15.7145C27.3753 14.4245 26.841 13.5916 26.6425 13.0063C25.2349 8.85534 23.5915 6.13296 22.7012 5.25786C21.0121 3.59748 19.1353 1.56814 17.9154 0C17.7277 0 17.2961 0.0553492 17.0708 0.276729C16.7893 0.553459 16.7893 3.04402 16.7893 3.59748C16.7893 4.15094 17.1005 6.97666 17.3524 7.47169C17.6339 8.02515 18.1969 9.4088 18.1969 9.4088C18.1969 9.4088 17.6339 8.85534 17.3524 8.30188C17.2299 8.06125 17.027 7.26994 16.8184 6.45657C16.5978 5.59666 16.371 4.7121 16.2263 4.42767C15.8702 3.72759 11.1589 0.276729 10.8774 0.276729C10.6579 0.276729 10.9177 1.55593 11.0695 2.30283L11.0701 2.30543L11.0712 2.31117L11.0729 2.31933C11.1141 2.5224 11.1469 2.68424 11.1589 2.76729C11.4404 4.7044 11.8776 5.84054 12.0035 6.08805C12.1194 6.31596 12.2831 6.68463 12.4748 7.11683L12.4757 7.11887L12.4774 7.12262L12.4782 7.12445C12.7514 7.74028 13.0812 8.48365 13.4111 9.13207L13.0639 9.37552C11.3367 10.5861 10.5274 11.1533 9.4698 12.4528C8.96154 13.0774 9.02684 13.3495 9.07907 13.5675C9.11948 13.7359 9.15213 13.872 8.90676 14.1132C8.18874 14.819 6.37295 16.6038 5.81005 16.8805C5.59355 16.9869 5.3266 17.1053 5.03607 17.2342C4.37097 17.5292 3.58263 17.879 2.99478 18.2642C2.15029 18.8176 1.30573 19.3711 0.461174 20.2012C-0.383385 21.0314 -0.101865 21.3082 1.58725 22.6918C1.58725 22.9132 2.15029 24.0755 2.99485 24.3522C3.40675 24.4872 3.53012 24.4837 3.65645 24.4801C3.78917 24.4764 3.92519 24.4725 4.40245 24.6289C4.96549 24.8134 6.3168 25.1824 7.21765 25.1824C7.81491 25.1824 8.8082 24.871 9.60939 24.6198C10.3187 24.3974 10.8774 24.2222 10.8774 24.3522C10.8774 24.5736 9.75132 25.1824 9.18828 25.4591H12.5665C12.8903 25.4591 13.0279 25.4591 13.1399 25.5117C13.2226 25.5506 13.2914 25.6182 13.4111 25.7358C13.602 25.9235 13.534 27.6385 13.4704 29.2407C13.4402 30.0011 13.4111 30.7361 13.4111 31.2704C13.4111 32.5987 13.7864 33.2998 13.9741 33.4843C14.2556 33.023 14.875 31.7132 15.1002 30.1635C15.3254 28.6138 16.3201 27.1195 16.7893 26.566L19.323 24.9056L20.7306 23.522C20.9558 23.3006 21.5751 22.5073 21.8567 22.1383L22.4197 20.7547L22.7012 23.2453C22.7012 23.7987 22.7012 24.0755 22.9827 24.3522C23.2292 24.3522 23.4217 24.3389 23.5958 24.3269C24.2162 24.2841 24.6026 24.2575 26.361 24.9057L27.7686 26.0126L28.3316 27.3962L29.7392 28.2264L30.0207 28.7799V29.0566L29.176 29.0624L29.7391 29.3333L30.0207 29.0566V30.4403C30.0207 30.717 29.7821 32.1945 28.6131 32.6541C27.7432 32.9961 27.6258 33.0212 27.4636 33.0557C27.3633 33.077 27.2461 33.102 26.9235 33.2077C26.3267 33.4033 26.0793 33.4844 25.5164 33.761C25.0128 34.0085 22.9865 35.1672 23.2643 36.805C23.5458 38.4654 23.5458 39.849 23.5458 40.6792ZM11.9246 14.1378C12.285 13.5597 12.7077 13.681 13.3496 14.1378C13.7463 14.42 14.0789 14.6857 13.5159 15.2391C12.6713 15.5159 12.2849 15.4969 11.9246 15.2447C11.8898 15.1454 11.861 15.0714 11.8382 15.0127C11.8011 14.9178 11.7796 14.8624 11.7741 14.8064C11.7666 14.7307 11.7879 14.6523 11.8378 14.468L11.8383 14.4662L11.8386 14.4651C11.8614 14.3811 11.8901 14.2751 11.9246 14.1378ZM13.4111 4.7044C12.285 3.04402 10.8774 0.553459 10.8774 0.553459L12.848 2.76729L14.2556 4.7044C15.1002 6.36478 15.6632 8.02515 15.6632 8.57861C15.6632 8.82134 15.3925 8.29376 14.9838 7.49715L14.9831 7.49581L14.9823 7.49417C14.5575 6.66652 13.9843 5.5496 13.4111 4.7044ZM17.6339 1.10692C17.6339 1.10692 17.4853 3.15251 19.0415 4.42767C20.5976 5.70283 21.2936 8.85534 21.2936 8.85534C21.2936 8.85534 21.2936 6.6415 20.4491 4.98113L19.0415 3.59748L17.6339 1.10692ZM1.14222 22.2767C1.00023 22.2767 1.8285 22.6918 2.25456 22.6918C2.67842 22.6918 3.10358 22.4778 3.39314 22.3321C3.43287 22.3121 3.47005 22.2934 3.50428 22.2767L4.50431 21.3082L3.37823 21.8616C3.37823 21.8616 2.94784 22.1383 2.25456 22.1383C1.41 22.1383 1.14222 22.2767 1.14222 22.2767Z" transform="translate(1 6)" fill="#396C9C"/>
<path d="M21.0121 24.3522C21.0121 24.9649 21.1718 25.4677 21.2703 25.6868C20.965 24.9682 21.5751 22.9685 21.5751 22.9685C21.5751 22.9685 21.0121 23.6881 21.0121 24.3522Z" transform="translate(1 6)" fill="#396C9C"/>
<path d="M27.1994 26.8596C26.7345 26.9697 26.5793 27.3962 26.5793 27.6729C26.5793 27.9847 26.8609 28.2264 27.1363 28.458C27.1363 28.458 27.4833 28.5764 27.6994 28.458C27.9154 28.3395 27.6645 26.7496 27.1994 26.8596Z" transform="translate(1 6)" fill="#396C9C"/>
<path d="M22.9827 44L22.7436 43.927C22.7097 44.0383 22.757 44.1584 22.8578 44.2165C22.9586 44.2747 23.0862 44.2556 23.1656 44.1705L22.9827 44ZM27.4871 39.5723L27.4092 39.3347C27.3883 39.3416 27.3684 39.3511 27.35 39.3632L27.4871 39.5723ZM33.399 37.6352L33.4768 37.8728H33.4768L33.399 37.6352ZM38.7478 35.4214L38.8466 35.651C38.8599 35.6453 38.8727 35.6384 38.8849 35.6305L38.7478 35.4214ZM41 32.3773H41.25C41.25 32.3566 41.2474 32.3359 41.2423 32.3157L41 32.3773ZM40.7185 31.5471L40.5768 31.7531C40.6533 31.8057 40.7526 31.8116 40.8348 31.7684C40.917 31.7252 40.9685 31.64 40.9685 31.5471H40.7185ZM33.1175 24.0755L32.8965 24.1924C32.9034 24.2054 32.9114 24.2179 32.9206 24.2295L33.1175 24.0755ZM28.2028 15.7145L27.9924 15.8494L27.9924 15.8494L28.2028 15.7145ZM26.6425 13.0063L26.4057 13.0866V13.0866L26.6425 13.0063ZM22.7012 5.25786L22.526 5.43614L22.526 5.43615L22.7012 5.25786ZM17.9154 0L18.1127 -0.153503C18.0654 -0.214389 17.9925 -0.25 17.9154 -0.25V0ZM17.0708 0.276729L16.8956 0.0984356L16.8956 0.0984423L17.0708 0.276729ZM17.3524 7.47169L17.5752 7.35835L17.5752 7.35834L17.3524 7.47169ZM18.1969 9.4088L18.0217 9.58708C18.1062 9.67021 18.2375 9.68249 18.336 9.6165C18.4346 9.55051 18.4732 9.4244 18.4285 9.31457L18.1969 9.4088ZM17.3524 8.30188L17.5752 8.18854L17.5752 8.18853L17.3524 8.30188ZM16.8184 6.45657L17.0605 6.39447L17.0605 6.39446L16.8184 6.45657ZM16.2263 4.42767L16.0034 4.54101L16.0034 4.54101L16.2263 4.42767ZM11.0695 2.30283L10.8245 2.35261L10.8249 2.35449L11.0695 2.30283ZM11.0701 2.30543L11.315 2.25559L11.3147 2.25377L11.0701 2.30543ZM11.0712 2.31117L10.8262 2.36101L10.8266 2.36271L11.0712 2.31117ZM11.0729 2.31933L11.318 2.26966L11.3176 2.2678L11.0729 2.31933ZM11.1589 2.76729L10.9115 2.80313L10.9115 2.80325L11.1589 2.76729ZM12.0035 6.08805L11.7807 6.2014L11.7807 6.2014L12.0035 6.08805ZM12.4748 7.11683L12.7039 7.01667L12.7034 7.01544L12.4748 7.11683ZM12.4757 7.11887L12.2467 7.21903L12.2469 7.21952L12.4757 7.11887ZM12.4774 7.12262L12.2485 7.22327L12.2496 7.22562L12.4774 7.12262ZM12.4782 7.12445L12.7067 7.02306L12.706 7.02144L12.4782 7.12445ZM13.4111 9.13207L13.5546 9.33675C13.6565 9.26527 13.6904 9.12968 13.6339 9.01872L13.4111 9.13207ZM13.0639 9.37552L13.2074 9.58025L13.2075 9.58021L13.0639 9.37552ZM9.4698 12.4528L9.2759 12.295L9.2759 12.295L9.4698 12.4528ZM9.07907 13.5675L8.83595 13.6258L8.83597 13.6259L9.07907 13.5675ZM8.90676 14.1132L8.73151 13.9349L8.73151 13.9349L8.90676 14.1132ZM5.81005 16.8805L5.92032 17.1049L5.81005 16.8805ZM5.03607 17.2342L4.9347 17.0057H4.9347L5.03607 17.2342ZM2.99478 18.2642L2.85776 18.0551L2.85775 18.0551L2.99478 18.2642ZM0.461174 20.2012L0.285923 20.023L0.285921 20.023L0.461174 20.2012ZM1.58725 22.6918H1.83725C1.83725 22.6169 1.80364 22.5459 1.74567 22.4984L1.58725 22.6918ZM2.99485 24.3522L3.0727 24.1146H3.07269L2.99485 24.3522ZM3.65645 24.4801L3.6635 24.73H3.66351L3.65645 24.4801ZM4.40245 24.6289L4.3246 24.8665H4.3246L4.40245 24.6289ZM9.60939 24.6198L9.5346 24.3812H9.5346L9.60939 24.6198ZM9.18828 25.4591L9.07801 25.2347C8.97367 25.286 8.91845 25.4025 8.94478 25.5157C8.9711 25.629 9.07202 25.7091 9.18828 25.7091V25.4591ZM13.1399 25.5117L13.0335 25.738L13.0336 25.738L13.1399 25.5117ZM13.4111 25.7358L13.5863 25.5575L13.5863 25.5575L13.4111 25.7358ZM13.4704 29.2407L13.7202 29.2506L13.4704 29.2407ZM13.9741 33.4843L13.7989 33.6625C13.8533 33.716 13.9291 33.7417 14.0048 33.7324C14.0805 33.723 14.1478 33.6796 14.1875 33.6145L13.9741 33.4843ZM16.7893 26.566L16.6523 26.3569C16.6322 26.3701 16.6141 26.386 16.5986 26.4043L16.7893 26.566ZM20.7306 23.522L20.5553 23.3437L20.5553 23.3437L20.7306 23.522ZM21.8567 22.1383L22.0554 22.29C22.0689 22.2724 22.0799 22.2531 22.0882 22.2326L21.8567 22.1383ZM22.4197 20.7547L22.6681 20.7266C22.6553 20.6131 22.5671 20.5226 22.4538 20.507C22.3406 20.4914 22.2312 20.5546 22.1881 20.6605L22.4197 20.7547ZM22.7012 23.2453H22.9512C22.9512 23.2359 22.9507 23.2265 22.9496 23.2172L22.7012 23.2453ZM22.9827 24.3522L22.8075 24.5305C22.8542 24.5765 22.9172 24.6022 22.9827 24.6022V24.3522ZM23.5958 24.3269L23.6129 24.5764L23.613 24.5764L23.5958 24.3269ZM26.361 24.9057L26.5155 24.7092C26.495 24.693 26.472 24.6802 26.4475 24.6711L26.361 24.9057ZM27.7686 26.0126L28.0001 25.9183C27.9838 25.8781 27.9572 25.8429 27.9231 25.816L27.7686 26.0126ZM28.3316 27.3962L28.1001 27.4905C28.1207 27.5412 28.1574 27.5837 28.2046 27.6116L28.3316 27.3962ZM29.7392 28.2264L29.962 28.1131C29.9405 28.0707 29.9072 28.0353 29.8662 28.0111L29.7392 28.2264ZM30.0207 28.7799H30.2707C30.2707 28.7405 30.2614 28.7017 30.2436 28.6665L30.0207 28.7799ZM29.176 29.0624L29.1743 28.8124C29.058 28.8133 28.9576 28.8942 28.9321 29.0077C28.9066 29.1212 28.9628 29.2373 29.0677 29.2877L29.176 29.0624ZM29.7391 29.3333L29.6308 29.5586C29.7258 29.6043 29.8392 29.5855 29.9144 29.5116L29.7391 29.3333ZM28.6131 32.6541L28.5217 32.4214H28.5217L28.6131 32.6541ZM27.4636 33.0557L27.5157 33.3002H27.5157L27.4636 33.0557ZM26.9235 33.2077L26.8456 32.9702L26.8456 32.9702L26.9235 33.2077ZM25.5164 33.761L25.4061 33.5366L25.5164 33.761ZM23.2643 36.805L23.5107 36.7632L23.5107 36.7632L23.2643 36.805ZM13.3496 14.1378L13.2046 14.3415L13.2046 14.3415L13.3496 14.1378ZM11.9246 14.1378L11.7125 14.0055C11.6988 14.0275 11.6885 14.0516 11.6822 14.0767L11.9246 14.1378ZM13.5159 15.2391L13.5937 15.4767C13.6303 15.4647 13.6637 15.4444 13.6911 15.4174L13.5159 15.2391ZM11.9246 15.2447L11.6888 15.3275C11.7061 15.3768 11.7384 15.4195 11.7813 15.4495L11.9246 15.2447ZM11.8382 15.0127L12.0712 14.9221L12.0711 14.9218L11.8382 15.0127ZM11.7741 14.8064L11.5253 14.8308L11.5253 14.8308L11.7741 14.8064ZM11.8378 14.468L11.5966 14.4024L11.5965 14.4026L11.8378 14.468ZM11.8383 14.4662L12.0796 14.5318L12.0809 14.5268L11.8383 14.4662ZM11.8386 14.4651L11.5973 14.3996L11.5961 14.4045L11.8386 14.4651ZM10.8774 0.553459L11.0641 0.387237C10.9792 0.291786 10.8359 0.275776 10.732 0.350117C10.628 0.424458 10.5969 0.565216 10.6598 0.676466L10.8774 0.553459ZM13.4111 4.7044L13.618 4.56408L13.618 4.56408L13.4111 4.7044ZM12.848 2.76729L13.0503 2.62033C13.0454 2.61366 13.0403 2.60723 13.0348 2.60107L12.848 2.76729ZM14.2556 4.7044L14.4785 4.59106C14.4725 4.57933 14.4656 4.56808 14.4579 4.55744L14.2556 4.7044ZM14.9838 7.49715L15.2062 7.38302L15.206 7.38265L14.9838 7.49715ZM14.9831 7.49581L14.7598 7.60824L14.7608 7.61031L14.9831 7.49581ZM14.9823 7.49417L15.2056 7.38174L15.2047 7.38003L14.9823 7.49417ZM17.6339 1.10692L17.8515 0.983911C17.7973 0.887957 17.6866 0.838839 17.5791 0.862996C17.4715 0.887153 17.3925 0.978884 17.3845 1.08881L17.6339 1.10692ZM21.2936 8.85534L21.0495 8.90924C21.077 9.03382 21.1939 9.1177 21.3207 9.10386C21.4476 9.09003 21.5436 8.98292 21.5436 8.85534H21.2936ZM20.4491 4.98113L20.6719 4.86778C20.6597 4.84371 20.6436 4.82178 20.6243 4.80284L20.4491 4.98113ZM19.0415 3.59748L18.8238 3.72049C18.8353 3.7408 18.8496 3.75941 18.8662 3.77577L19.0415 3.59748ZM21.2703 25.6868L21.0422 25.7892C21.0984 25.9143 21.2448 25.9708 21.3704 25.9159C21.496 25.861 21.5539 25.7152 21.5004 25.5891L21.2703 25.6868ZM21.5751 22.9685L21.8143 23.0415C21.8494 22.9263 21.7974 22.8024 21.6906 22.7468C21.5838 22.6912 21.4525 22.7196 21.3783 22.8145L21.5751 22.9685ZM27.1994 26.8596L27.1418 26.6164L27.1418 26.6164L27.1994 26.8596ZM27.1363 28.458L26.9755 28.6493C26.9991 28.6692 27.0263 28.6846 27.0556 28.6946L27.1363 28.458ZM1.14222 22.2767V22.5267C1.18216 22.5267 1.22151 22.5171 1.25699 22.4988L1.14222 22.2767ZM3.39314 22.3321L3.28081 22.1088L3.28077 22.1088L3.39314 22.3321ZM3.50428 22.2767L3.61384 22.5014C3.63754 22.4899 3.65927 22.4746 3.67821 22.4563L3.50428 22.2767ZM4.50431 21.3082L4.39403 21.0838H4.39403L4.50431 21.3082ZM3.37823 21.8616L3.26796 21.6373C3.25938 21.6415 3.25106 21.6462 3.24302 21.6513L3.37823 21.8616ZM17.9469 27.1195C17.9469 27.2575 18.0588 27.3695 18.1969 27.3695C18.335 27.3695 18.4469 27.2575 18.4469 27.1195H17.9469ZM5.17762 21.2558C5.30153 21.1949 5.35261 21.0451 5.29171 20.9212C5.23081 20.7972 5.08099 20.7462 4.95707 20.8071L5.17762 21.2558ZM23.2219 44.073C23.3677 43.595 23.5106 42.8749 23.6166 42.2192C23.7219 41.5679 23.7958 40.9496 23.7958 40.6792H23.2958C23.2958 40.9039 23.2289 41.4848 23.123 42.1394C23.0179 42.7898 22.8793 43.4826 22.7436 43.927L23.2219 44.073ZM26.1857 40.2242C25.9554 40.4506 23.8284 42.7267 22.7999 43.8295L23.1656 44.1705C24.2017 43.0595 26.3161 40.7971 26.5362 40.5808L26.1857 40.2242ZM27.35 39.3632C27.2068 39.457 26.9786 39.6113 26.757 39.7705C26.5401 39.9264 26.3139 40.0982 26.1857 40.2242L26.5362 40.5808C26.6333 40.4854 26.8293 40.3343 27.0488 40.1765C27.2636 40.0222 27.4858 39.872 27.6241 39.7814L27.35 39.3632ZM33.3211 37.3976L27.4092 39.3347L27.5649 39.8099L33.4768 37.8728L33.3211 37.3976ZM38.6491 35.1917C37.1399 35.8407 33.9829 37.1808 33.3211 37.3976L33.4768 37.8728C34.1662 37.6469 37.353 36.2934 38.8466 35.651L38.6491 35.1917ZM40.4957 33.6477C40.4591 33.7196 40.3685 33.8317 40.2202 33.9764C40.0771 34.1159 39.8977 34.2692 39.7042 34.4232C39.3174 34.731 38.8875 35.0309 38.6108 35.2123L38.8849 35.6305C39.1712 35.4428 39.614 35.1339 40.0155 34.8145C40.2161 34.6548 40.4097 34.4899 40.5693 34.3343C40.7236 34.1838 40.8653 34.0238 40.9413 33.8744L40.4957 33.6477ZM40.75 32.3773C40.75 32.5023 40.737 32.7239 40.697 32.9662C40.6567 33.211 40.5916 33.4591 40.4957 33.6477L40.9413 33.8744C41.0706 33.6202 41.1463 33.3148 41.1904 33.0476C41.2348 32.778 41.25 32.5292 41.25 32.3773H40.75ZM40.9685 31.5471C40.9685 31.5472 40.9685 31.5508 40.9679 31.5569C40.9674 31.5615 40.9657 31.5769 40.9591 31.5973C40.955 31.61 40.9357 31.6689 40.8737 31.7147C40.8378 31.7412 40.7914 31.7601 40.7387 31.7624C40.6883 31.7646 40.6476 31.7511 40.6205 31.7378C40.5725 31.7142 40.547 31.6815 40.5419 31.675C40.5332 31.664 40.5291 31.6562 40.529 31.6561C40.5287 31.6556 40.533 31.6636 40.5418 31.6863C40.5779 31.7788 40.645 31.9958 40.7577 32.439L41.2423 32.3157C41.1298 31.8733 41.0562 31.6291 41.0077 31.5048C40.9955 31.4734 40.9821 31.4425 40.9673 31.4155C40.96 31.4022 40.9494 31.3843 40.9349 31.3659C40.924 31.352 40.8935 31.3148 40.8411 31.2891C40.8118 31.2747 40.769 31.2606 40.7168 31.2629C40.6622 31.2653 40.6141 31.2848 40.5766 31.3125C40.5115 31.3606 40.4897 31.424 40.4836 31.4427C40.4687 31.4885 40.4685 31.5314 40.4685 31.5471H40.9685ZM32.9206 24.2295C35.7465 27.8407 37.735 29.7977 40.5768 31.7531L40.8602 31.3412C38.0716 29.4224 36.1188 27.5052 33.3143 23.9214L32.9206 24.2295ZM27.9924 15.8494C29.1199 17.607 30.7898 20.2099 32.8965 24.1924L33.3384 23.9586C31.2219 19.9576 29.5432 17.3408 28.4132 15.5795L27.9924 15.8494ZM26.4057 13.0866C26.5137 13.405 26.7082 13.7781 26.9716 14.2234C27.2363 14.6708 27.5795 15.2058 27.9924 15.8494L28.4132 15.5795C27.9986 14.9331 27.661 14.4067 27.4019 13.9688C27.1417 13.5289 26.9697 13.1928 26.8793 12.926L26.4057 13.0866ZM22.526 5.43615C22.9438 5.84684 23.563 6.7195 24.2573 8.02128C24.9485 9.31725 25.706 11.023 26.4057 13.0866L26.8793 12.926C26.1714 10.8386 25.4034 9.10771 24.6984 7.78598C23.9966 6.47005 23.3489 5.54397 22.8765 5.07957L22.526 5.43615ZM17.7181 0.153503C18.9472 1.7335 20.8324 3.77138 22.526 5.43614L22.8765 5.07957C21.1918 3.42359 19.3234 1.40278 18.1127 -0.153503L17.7181 0.153503ZM17.2461 0.455023C17.3134 0.388821 17.4286 0.334115 17.5701 0.29729C17.7075 0.261546 17.8411 0.25 17.9154 0.25V-0.25C17.802 -0.25 17.6259 -0.233872 17.4442 -0.186596C17.2667 -0.140401 17.0535 -0.0567426 16.8956 0.0984356L17.2461 0.455023ZM17.0393 3.59748C17.0393 3.32064 17.0393 2.56512 17.0742 1.84543C17.0917 1.48485 17.1176 1.13917 17.1556 0.869382C17.1747 0.733964 17.1959 0.624225 17.2185 0.54394C17.2451 0.44958 17.2623 0.439104 17.2461 0.455016L16.8956 0.0984423C16.809 0.183537 16.7646 0.311425 16.7373 0.408398C16.706 0.519446 16.681 0.654006 16.6605 0.799642C16.6193 1.09196 16.5925 1.4554 16.5748 1.82124C16.5393 2.55437 16.5393 3.32087 16.5393 3.59748H17.0393ZM17.5752 7.35834C17.5567 7.32204 17.5297 7.24594 17.4978 7.12303C17.4672 7.00478 17.4355 6.85764 17.4038 6.68909C17.3404 6.35229 17.2786 5.94044 17.2243 5.52415C17.1149 4.68548 17.0393 3.85581 17.0393 3.59748H16.5393C16.5393 3.89261 16.6194 4.75253 16.7285 5.58884C16.7835 6.01004 16.8467 6.43203 16.9125 6.78158C16.9453 6.9562 16.9793 7.11536 17.0139 7.24856C17.0472 7.3771 17.085 7.49758 17.1295 7.58505L17.5752 7.35834ZM18.1969 9.4088C18.4285 9.31457 18.4285 9.31456 18.4285 9.31455C18.4285 9.31453 18.4284 9.31452 18.4284 9.31449C18.4284 9.31444 18.4284 9.31437 18.4284 9.31429C18.4283 9.31411 18.4282 9.31385 18.428 9.3135C18.4278 9.31281 18.4273 9.31179 18.4268 9.31045C18.4257 9.30778 18.4241 9.30381 18.422 9.29863C18.4177 9.28827 18.4115 9.27304 18.4035 9.25348C18.3875 9.21435 18.3643 9.15791 18.3356 9.08847C18.2782 8.94962 18.1987 8.75865 18.1104 8.55023C17.9349 8.13628 17.7205 7.64407 17.5752 7.35835L17.1295 7.58504C17.2657 7.85278 17.4736 8.32912 17.65 8.74536C17.7376 8.95203 17.8165 9.14156 17.8735 9.27944C17.902 9.34837 17.925 9.40434 17.9408 9.44305C17.9488 9.46241 17.9549 9.47744 17.9591 9.48762C17.9611 9.49271 17.9627 9.49658 17.9638 9.49917C17.9643 9.50047 17.9647 9.50144 17.965 9.50209C17.9651 9.50241 17.9652 9.50265 17.9653 9.50281C17.9653 9.50288 17.9653 9.50294 17.9653 9.50298C17.9653 9.503 17.9653 9.50301 17.9653 9.50302C17.9653 9.50303 17.9653 9.50303 18.1969 9.4088ZM17.1295 8.41522C17.2833 8.7175 17.5089 9.01149 17.6895 9.22455C17.7809 9.33239 17.8632 9.42225 17.9228 9.48535C17.9526 9.51694 17.9769 9.54193 17.9939 9.55923C18.0024 9.56788 18.0091 9.57462 18.0138 9.5793C18.0162 9.58165 18.018 9.58348 18.0193 9.58478C18.02 9.58543 18.0205 9.58595 18.0209 9.58634C18.0211 9.58653 18.0213 9.58669 18.0214 9.58681C18.0214 9.58687 18.0215 9.58693 18.0215 9.58697C18.0216 9.587 18.0216 9.58702 18.0216 9.58704C18.0216 9.58706 18.0217 9.58708 18.1969 9.4088C18.3722 9.23051 18.3722 9.23053 18.3722 9.23055C18.3722 9.23055 18.3722 9.23057 18.3722 9.23057C18.3722 9.23058 18.3722 9.23059 18.3722 9.23058C18.3722 9.23057 18.3722 9.23053 18.3721 9.23045C18.372 9.2303 18.3717 9.23002 18.3713 9.22961C18.3704 9.22878 18.3691 9.22744 18.3672 9.22559C18.3635 9.2219 18.3579 9.21621 18.3504 9.20864C18.3355 9.19352 18.3136 9.17094 18.2863 9.142C18.2315 9.08403 18.1554 9.00093 18.0709 8.90122C17.8996 8.69919 17.7029 8.43972 17.5752 8.18854L17.1295 8.41522ZM16.5762 6.51868C16.6803 6.92456 16.7839 7.32859 16.8769 7.6613C16.9671 7.98395 17.0548 8.26828 17.1295 8.41523L17.5752 8.18853C17.5275 8.09485 17.4525 7.8632 17.3585 7.52671C17.2672 7.20026 17.1651 6.80195 17.0605 6.39447L16.5762 6.51868ZM16.0034 4.54101C16.0625 4.65704 16.1492 4.92382 16.2532 5.29397C16.3546 5.65482 16.4657 6.08792 16.5762 6.51868L17.0605 6.39446C16.9505 5.96531 16.8379 5.52617 16.7345 5.15866C16.6339 4.80044 16.5348 4.48273 16.4491 4.31433L16.0034 4.54101ZM10.8774 0.526729C10.8372 0.526729 10.8136 0.514974 10.8274 0.520247C10.8331 0.52241 10.8456 0.527828 10.8667 0.538514C10.9082 0.559629 10.967 0.593161 11.043 0.639629C11.194 0.732012 11.3984 0.866719 11.6403 1.03292C12.1234 1.36481 12.7467 1.81576 13.3732 2.28913C13.9998 2.76267 14.6268 3.25648 15.1179 3.67418C15.3637 3.88324 15.5729 4.071 15.7301 4.22622C15.8959 4.38992 15.9797 4.49442 16.0034 4.54101L16.4491 4.31433C16.3838 4.1859 16.2425 4.02941 16.0814 3.8704C15.9117 3.7029 15.6922 3.5062 15.4418 3.2933C14.9407 2.86706 14.3054 2.3669 13.6746 1.89021C13.0435 1.41336 12.414 0.957837 11.9234 0.620806C11.6785 0.452553 11.4659 0.312193 11.3039 0.213123C11.2234 0.163864 11.1518 0.122572 11.0932 0.0927957C11.0642 0.078036 11.0343 0.0639918 11.0056 0.0530528C10.985 0.0452244 10.9352 0.0267293 10.8774 0.0267293V0.526729ZM11.3145 2.25305C11.2382 1.87756 11.1371 1.37943 11.0819 0.975821C11.054 0.771771 11.0399 0.605751 11.0433 0.496129C11.0452 0.438006 11.0515 0.418087 11.0506 0.420614C11.0498 0.422804 11.0409 0.447039 11.0133 0.473075C10.9802 0.504372 10.9317 0.526729 10.8774 0.526729V0.0267293C10.6916 0.0267293 10.6088 0.174412 10.5822 0.245693C10.554 0.321094 10.5459 0.406947 10.5436 0.480419C10.5388 0.633987 10.5579 0.834449 10.5865 1.04356C10.6443 1.46628 10.749 1.98119 10.8245 2.35261L11.3145 2.25305ZM11.3147 2.25377L11.3141 2.25117L10.8249 2.35449L10.8254 2.35709L11.3147 2.25377ZM11.3162 2.26134L11.315 2.25559L10.8251 2.35527L10.8262 2.36101L11.3162 2.26134ZM11.4063 2.73146C11.393 2.63949 11.3582 2.46822 11.318 2.26966L10.8279 2.369C10.87 2.57659 10.9008 2.729 10.9115 2.80313L11.4063 2.73146ZM12.2263 5.97469C12.1166 5.75904 11.6854 4.65141 11.4063 2.73134L10.9115 2.80325C11.1955 4.75738 11.6385 5.92203 11.7807 6.2014L12.2263 5.97469ZM12.7034 7.01544C12.513 6.58634 12.346 6.21004 12.2263 5.97469L11.7807 6.2014C11.8928 6.42189 12.0532 6.78291 12.2463 7.21822L12.7034 7.01544ZM12.7048 7.01872L12.7039 7.01667L12.2458 7.21698L12.2467 7.21903L12.7048 7.01872ZM12.7062 7.02198L12.7046 7.01823L12.2469 7.21952L12.2485 7.22326L12.7062 7.02198ZM12.706 7.02144L12.7052 7.01962L12.2496 7.22562L12.2504 7.22745L12.706 7.02144ZM13.6339 9.01872C13.3076 8.37727 12.9805 7.64014 12.7067 7.02307L12.2497 7.22583C12.5223 7.84043 12.8549 8.59004 13.1882 9.24542L13.6339 9.01872ZM13.2075 9.58021L13.5546 9.33675L13.2675 8.92738L12.9204 9.17084L13.2075 9.58021ZM9.6637 12.6106C10.697 11.341 11.4797 10.7911 13.2074 9.58025L12.9204 9.1708C11.1937 10.381 10.3578 10.9656 9.2759 12.295L9.6637 12.6106ZM9.32219 13.5093C9.29756 13.4065 9.28113 13.3327 9.30764 13.2197C9.3363 13.0976 9.422 12.9076 9.66371 12.6106L9.2759 12.295C9.00935 12.6226 8.87357 12.8809 8.82086 13.1055C8.76601 13.3393 8.80834 13.5106 8.83595 13.6258L9.32219 13.5093ZM9.08202 14.2915C9.22361 14.1523 9.31376 14.0157 9.345 13.8632C9.37528 13.7154 9.34062 13.5861 9.32217 13.5092L8.83597 13.6259C8.85794 13.7174 8.8598 13.7403 8.85517 13.7629C8.8515 13.7808 8.83528 13.8329 8.73151 13.9349L9.08202 14.2915ZM5.92032 17.1049C6.09165 17.0206 6.3321 16.8381 6.59049 16.6227C6.85592 16.4014 7.16172 16.127 7.47016 15.8412C8.0873 15.2693 8.72325 14.6442 9.08202 14.2915L8.73151 13.9349C8.37225 14.2881 7.74129 14.9083 7.13031 15.4744C6.82468 15.7576 6.52611 16.0254 6.27033 16.2386C6.00751 16.4577 5.8099 16.602 5.69977 16.6561L5.92032 17.1049ZM5.13745 17.4627C5.4265 17.3345 5.69846 17.2139 5.92032 17.1049L5.69977 16.6561C5.48863 16.7599 5.22669 16.8761 4.9347 17.0057L5.13745 17.4627ZM3.13181 18.4733C3.6992 18.1015 4.46712 17.7601 5.13745 17.4627L4.9347 17.0057C4.27482 17.2984 3.46607 17.6564 2.85776 18.0551L3.13181 18.4733ZM0.636426 20.3795C1.46123 19.5688 2.2863 19.0274 3.13182 18.4733L2.85775 18.0551C2.01428 18.6078 1.15023 19.1734 0.285923 20.023L0.636426 20.3795ZM1.74567 22.4984C1.322 22.1514 0.994152 21.8798 0.750316 21.6527C0.50306 21.4225 0.363797 21.2571 0.296915 21.1256C0.238833 21.0114 0.23841 20.931 0.275287 20.8392C0.320749 20.726 0.428912 20.5835 0.636428 20.3795L0.285921 20.023C0.071157 20.2341 -0.1022 20.4375 -0.1887 20.6529C-0.283785 20.8897 -0.266613 21.1206 -0.148745 21.3523C-0.0396782 21.5667 0.155364 21.7819 0.409565 22.0186C0.667185 22.2585 1.00795 22.5404 1.42883 22.8852L1.74567 22.4984ZM3.07269 24.1146C2.72638 24.0011 2.41361 23.6937 2.17933 23.3581C2.06484 23.1941 1.97555 23.0326 1.91582 22.9018C1.8859 22.8364 1.86461 22.7812 1.8513 22.7395C1.83591 22.6912 1.83725 22.6792 1.83725 22.6918H1.33725C1.33725 22.7597 1.35619 22.8325 1.37489 22.8912C1.39568 22.9565 1.42496 23.0307 1.46103 23.1096C1.53326 23.2677 1.63752 23.4555 1.76936 23.6444C2.02773 24.0144 2.41876 24.4265 2.91701 24.5898L3.07269 24.1146ZM3.6494 24.2302C3.59061 24.2319 3.54671 24.233 3.47189 24.2212C3.39208 24.2085 3.27225 24.18 3.0727 24.1146L2.917 24.5898C3.12935 24.6593 3.27716 24.6966 3.3936 24.715C3.51501 24.7343 3.59596 24.7319 3.6635 24.73L3.6494 24.2302ZM4.48029 24.3913C4.23574 24.3112 4.06885 24.2688 3.94079 24.2478C3.80707 24.2258 3.72125 24.2282 3.64939 24.2302L3.66351 24.73C3.72437 24.7283 3.77291 24.7269 3.8597 24.7411C3.95214 24.7563 4.0919 24.7902 4.3246 24.8665L4.48029 24.3913ZM7.21765 24.9324C6.35958 24.9324 5.04086 24.575 4.48029 24.3913L4.3246 24.8665C4.89012 25.0518 6.27401 25.4324 7.21765 25.4324V24.9324ZM9.5346 24.3812C9.13282 24.5072 8.6904 24.6458 8.27455 24.7532C7.85391 24.8618 7.48242 24.9324 7.21765 24.9324V25.4324C7.55014 25.4324 7.97393 25.3472 8.39955 25.2373C8.82996 25.1262 9.28477 24.9835 9.68419 24.8583L9.5346 24.3812ZM11.1274 24.3522C11.1274 24.2965 11.1114 24.2363 11.0724 24.1832C11.0352 24.1327 10.9886 24.104 10.9513 24.0878C10.8837 24.0586 10.8147 24.0569 10.7726 24.058C10.6806 24.0603 10.5665 24.0828 10.4505 24.1109C10.2122 24.1686 9.88579 24.2711 9.5346 24.3812L9.68418 24.8583C10.0423 24.7461 10.3499 24.6497 10.5683 24.5968C10.6806 24.5696 10.7505 24.5587 10.7854 24.5578C10.8068 24.5573 10.7869 24.5615 10.7527 24.5467C10.7321 24.5378 10.6981 24.5183 10.6695 24.4794C10.639 24.4379 10.6274 24.3917 10.6274 24.3522H11.1274ZM9.29856 25.6835C9.58415 25.5431 10.0136 25.3181 10.3741 25.0984C10.5533 24.9891 10.7227 24.8769 10.8499 24.774C10.9129 24.723 10.9733 24.6682 11.0202 24.6117C11.0581 24.5662 11.1274 24.4733 11.1274 24.3522H10.6274C10.6274 24.2864 10.6615 24.261 10.6356 24.2922C10.6188 24.3125 10.5868 24.3437 10.5354 24.3853C10.4339 24.4674 10.2865 24.5662 10.1139 24.6714C9.77056 24.8806 9.35546 25.0984 9.07801 25.2347L9.29856 25.6835ZM12.5665 25.2091H9.18828V25.7091H12.5665V25.2091ZM13.2462 25.2855C13.1515 25.241 13.0552 25.2241 12.9511 25.2164C12.8508 25.2089 12.7244 25.2091 12.5665 25.2091V25.7091C12.7325 25.7091 12.8368 25.7093 12.9142 25.715C12.9878 25.7204 13.0162 25.7299 13.0335 25.738L13.2462 25.2855ZM13.5863 25.5575C13.4781 25.4512 13.3762 25.3465 13.2462 25.2855L13.0336 25.738C13.0691 25.7547 13.1047 25.7853 13.2358 25.9141L13.5863 25.5575ZM13.7202 29.2506C13.7519 28.4511 13.7851 27.6165 13.7862 26.9582C13.7867 26.6297 13.7793 26.3384 13.7588 26.1145C13.7486 26.0031 13.7345 25.901 13.7142 25.8163C13.704 25.7739 13.6911 25.7305 13.6737 25.69C13.6573 25.6519 13.6308 25.6012 13.5863 25.5575L13.2358 25.9141C13.2152 25.8939 13.2105 25.8786 13.2141 25.887C13.2167 25.893 13.2218 25.9073 13.2279 25.9328C13.2402 25.9841 13.2516 26.0594 13.2609 26.1602C13.2793 26.3606 13.2867 26.6334 13.2862 26.9574C13.2851 27.6041 13.2524 28.4281 13.2206 29.2308L13.7202 29.2506ZM13.6611 31.2704C13.6611 30.7422 13.6899 30.013 13.7202 29.2506L13.2206 29.2308C13.1905 29.9892 13.1611 30.7299 13.1611 31.2704H13.6611ZM14.1494 33.306C14.0956 33.2531 13.9711 33.0742 13.8602 32.7297C13.7516 32.3924 13.6611 31.9112 13.6611 31.2704H13.1611C13.1611 31.958 13.2582 32.4914 13.3842 32.8829C13.5079 33.2671 13.6649 33.5309 13.7989 33.6625L14.1494 33.306ZM14.8528 30.1275C14.6331 31.6392 14.0273 32.9173 13.7607 33.354L14.1875 33.6145C14.484 33.1288 15.1168 31.7872 15.3476 30.1995L14.8528 30.1275ZM16.5986 26.4043C16.1143 26.9756 15.0875 28.5127 14.8528 30.1275L15.3476 30.1995C15.5634 28.7149 16.5259 27.2633 16.98 26.7277L16.5986 26.4043ZM19.186 24.6965L16.6523 26.3569L16.9263 26.7751L19.46 25.1147L19.186 24.6965ZM20.5553 23.3437L19.1477 24.7274L19.4982 25.0839L20.9058 23.7003L20.5553 23.3437ZM21.6579 21.9867C21.5181 22.17 21.2941 22.4589 21.0775 22.7291C20.8567 23.0045 20.6553 23.2455 20.5553 23.3437L20.9058 23.7003C21.0311 23.5771 21.252 23.3108 21.4676 23.0419C21.6873 22.7679 21.9137 22.4757 22.0554 22.29L21.6579 21.9867ZM22.1881 20.6605L21.6251 22.0441L22.0882 22.2326L22.6513 20.8489L22.1881 20.6605ZM22.9496 23.2172L22.6681 20.7266L22.1713 20.7828L22.4528 23.2733L22.9496 23.2172ZM23.158 24.1739C23.0536 24.0713 23.0069 23.978 22.9814 23.8527C22.9523 23.7099 22.9512 23.5312 22.9512 23.2453H22.4512C22.4512 23.5128 22.4501 23.7492 22.4914 23.9523C22.5363 24.173 22.6304 24.3564 22.8075 24.5305L23.158 24.1739ZM23.5786 24.0775C23.4049 24.0895 23.2199 24.1022 22.9827 24.1022V24.6022C23.2386 24.6022 23.4385 24.5884 23.6129 24.5764L23.5786 24.0775ZM26.4475 24.6711C25.5644 24.3456 25.0114 24.1839 24.5948 24.1109C24.1695 24.0364 23.8926 24.0559 23.5785 24.0775L23.613 24.5764C23.9194 24.5552 24.1459 24.5399 24.5085 24.6034C24.8798 24.6685 25.3991 24.8175 26.2745 25.1402L26.4475 24.6711ZM27.9231 25.816L26.5155 24.7092L26.2064 25.1022L27.614 26.2091L27.9231 25.816ZM28.5632 27.302L28.0001 25.9183L27.537 26.1068L28.1001 27.4905L28.5632 27.302ZM29.8662 28.0111L28.4586 27.1809L28.2046 27.6116L29.6122 28.4418L29.8662 28.0111ZM30.2436 28.6665L29.962 28.1131L29.5164 28.3398L29.7979 28.8932L30.2436 28.6665ZM30.2707 29.0566V28.7799H29.7707V29.0566H30.2707ZM30.019 28.8066L29.1743 28.8124L29.1778 29.3124L30.0225 29.3066L30.019 28.8066ZM29.0677 29.2877L29.6308 29.5586L29.8475 29.108L29.2844 28.8372L29.0677 29.2877ZM29.9144 29.5116L30.196 29.2349L29.8455 28.8783L29.5639 29.155L29.9144 29.5116ZM30.2707 30.4403V29.0566H29.7707V30.4403H30.2707ZM28.7046 32.8868C29.3729 32.624 29.7631 32.0748 29.9836 31.5804C30.2027 31.0891 30.2707 30.616 30.2707 30.4403H29.7707C29.7707 30.5412 29.7194 30.9452 29.527 31.3768C29.3359 31.8052 29.0223 32.2246 28.5217 32.4214L28.7046 32.8868ZM27.5157 33.3002C27.6998 33.261 27.834 33.2291 28.7046 32.8868L28.5217 32.4214C27.6524 32.7632 27.5517 32.7813 27.4116 32.8112L27.5157 33.3002ZM27.0013 33.4453C27.3154 33.3424 27.4241 33.3197 27.5157 33.3002L27.4116 32.8112C27.3026 32.8344 27.1768 32.8616 26.8456 32.9702L27.0013 33.4453ZM25.6267 33.9854C26.1738 33.7165 26.4081 33.6397 27.0013 33.4453L26.8456 32.9702C26.2452 33.1669 25.9848 33.2522 25.4061 33.5366L25.6267 33.9854ZM23.5107 36.7632C23.3922 36.0644 23.7601 35.4434 24.2725 34.94C24.781 34.4406 25.3875 34.1029 25.6267 33.9854L25.4061 33.5366C25.1417 33.6666 24.4833 34.0321 23.9222 34.5833C23.365 35.1306 22.8586 35.9079 23.0178 36.8468L23.5107 36.7632ZM23.7958 40.6792C23.7958 39.8471 23.796 38.4456 23.5107 36.7632L23.0178 36.8468C23.2956 38.4851 23.2958 39.851 23.2958 40.6792H23.7958ZM13.4945 13.9341C13.1746 13.7064 12.8567 13.5205 12.5479 13.5003C12.3827 13.4894 12.2235 13.5258 12.0764 13.6177C11.9338 13.707 11.8153 13.8406 11.7125 14.0055L12.1368 14.27C12.2142 14.1459 12.2836 14.0779 12.3417 14.0416C12.3953 14.008 12.4494 13.9949 12.5152 13.9992C12.6683 14.0092 12.8827 14.1124 13.2046 14.3415L13.4945 13.9341ZM13.6911 15.4174C13.9954 15.1183 14.1414 14.8131 14.0275 14.501C13.9772 14.3634 13.8848 14.2546 13.793 14.1687C13.701 14.0824 13.5929 14.004 13.4945 13.9341L13.2046 14.3415C13.3046 14.4126 13.3868 14.4733 13.4512 14.5335C13.5157 14.594 13.5457 14.6392 13.5578 14.6725C13.5686 14.7021 13.5994 14.8065 13.3406 15.0608L13.6911 15.4174ZM11.7813 15.4495C12.0004 15.6028 12.2359 15.6882 12.537 15.6902C12.8252 15.6922 13.1638 15.6176 13.5937 15.4767L13.438 15.0016C13.0234 15.1374 12.7465 15.1917 12.5404 15.1903C12.347 15.1889 12.2092 15.1387 12.068 15.0399L11.7813 15.4495ZM11.6052 15.1034C11.6278 15.1616 11.6554 15.2324 11.6888 15.3275L12.1605 15.1619C12.1242 15.0585 12.0942 14.9812 12.0712 14.9221L11.6052 15.1034ZM11.5253 14.8308C11.5349 14.9288 11.5728 15.0204 11.6053 15.1036L12.0711 14.9218C12.0294 14.8151 12.0242 14.796 12.0229 14.782L11.5253 14.8308ZM11.5965 14.4026C11.5524 14.5654 11.5122 14.6981 11.5253 14.8308L12.0229 14.782C12.021 14.7633 12.0233 14.7393 12.0791 14.5334L11.5965 14.4026ZM11.5971 14.4007L11.5966 14.4024L12.0791 14.5335L12.0796 14.5317L11.5971 14.4007ZM11.5961 14.4045L11.5958 14.4056L12.0809 14.5268L12.0811 14.5257L11.5961 14.4045ZM11.6822 14.0767C11.6482 14.2118 11.62 14.3159 11.5973 14.3996L12.0799 14.5306C12.1028 14.4462 12.1319 14.3385 12.1671 14.1988L11.6822 14.0767ZM10.8774 0.553459C10.6598 0.676466 10.6598 0.676481 10.6598 0.676506C10.6598 0.676527 10.6598 0.676562 10.6598 0.676604C10.6599 0.676688 10.66 0.676809 10.66 0.676969C10.6602 0.677288 10.6605 0.677757 10.6608 0.678375C10.6615 0.679612 10.6626 0.681444 10.6639 0.683859C10.6667 0.688689 10.6707 0.695852 10.6761 0.705246C10.6867 0.724033 10.7025 0.751745 10.7229 0.78757C10.7638 0.859218 10.8234 0.963328 10.8983 1.09341C11.0483 1.35355 11.26 1.71769 11.507 2.13387C12.0003 2.96522 12.6368 4.00815 13.2042 4.84472L13.618 4.56408C13.0593 3.74027 12.4289 2.70774 11.937 1.8787C11.6913 1.4647 11.4807 1.10242 11.3315 0.843695C11.257 0.714343 11.1978 0.610907 11.1572 0.539866C11.137 0.504347 11.1214 0.476929 11.1109 0.458423C11.1056 0.44917 11.1017 0.442145 11.099 0.437449C11.0977 0.435101 11.0967 0.433336 11.096 0.432165C11.0957 0.43158 11.0954 0.431144 11.0953 0.430857C11.0952 0.430714 11.0951 0.430609 11.0951 0.430541C11.0951 0.430507 11.0951 0.430485 11.0951 0.430468C11.095 0.430455 11.095 0.430452 10.8774 0.553459ZM13.0348 2.60107L11.0641 0.387237L10.6907 0.719681L12.6613 2.93352L13.0348 2.60107ZM14.4579 4.55744L13.0503 2.62033L12.6458 2.91425L14.0534 4.85136L14.4579 4.55744ZM15.9132 8.57861C15.9132 8.4078 15.8714 8.17539 15.8044 7.91164C15.736 7.64273 15.6366 7.32375 15.5117 6.97274C15.2616 6.27056 14.9055 5.43054 14.4785 4.59106L14.0328 4.81774C14.4504 5.63864 14.798 6.45899 15.0406 7.14046C15.162 7.48127 15.2562 7.78493 15.3198 8.03488C15.3847 8.29 15.4132 8.47269 15.4132 8.57861H15.9132ZM14.7613 7.61127C14.9639 8.00607 15.138 8.34556 15.2615 8.55475C15.2928 8.60774 15.3229 8.65584 15.3509 8.6961C15.3762 8.73239 15.4101 8.77735 15.45 8.81227C15.4684 8.82833 15.5078 8.86021 15.565 8.87703C15.6362 8.89802 15.7354 8.89339 15.8164 8.82183C15.8791 8.76642 15.8977 8.69816 15.904 8.66999C15.9117 8.63559 15.9132 8.60305 15.9132 8.57861H15.4132C15.4132 8.58451 15.4126 8.5763 15.4162 8.56044C15.4183 8.55082 15.4307 8.49534 15.4852 8.44718C15.558 8.38286 15.647 8.37996 15.7062 8.39738C15.7512 8.41064 15.7766 8.43366 15.7791 8.43585C15.7873 8.44299 15.7819 8.44002 15.7611 8.41018C15.7431 8.38432 15.7201 8.34808 15.692 8.30051C15.578 8.10744 15.4124 7.78483 15.2062 7.38302L14.7613 7.61127ZM14.7608 7.61031L14.7615 7.61164L15.206 7.38265L15.2053 7.38132L14.7608 7.61031ZM14.759 7.6066L14.7598 7.60824L15.2064 7.38338L15.2055 7.38175L14.759 7.6066ZM13.2042 4.84472C13.7672 5.67487 14.3333 6.77722 14.7598 7.60832L15.2047 7.38003C14.7817 6.55582 14.2014 5.42434 13.618 4.56408L13.2042 4.84472ZM19.1999 4.2343C18.4777 3.64244 18.1469 2.86879 17.9975 2.232C17.923 1.91424 17.8945 1.6341 17.8847 1.43421C17.8798 1.33443 17.8796 1.25511 17.8805 1.20168C17.881 1.17497 17.8817 1.15477 17.8823 1.14176C17.8826 1.13526 17.8829 1.13055 17.883 1.12773C17.8831 1.12632 17.8832 1.12539 17.8832 1.12493C17.8832 1.1247 17.8832 1.12459 17.8832 1.12461C17.8832 1.12462 17.8832 1.12466 17.8832 1.12472C17.8832 1.12476 17.8832 1.12483 17.8832 1.12485C17.8832 1.12493 17.8832 1.12502 17.6339 1.10692C17.3845 1.08881 17.3845 1.08892 17.3845 1.08903C17.3845 1.08908 17.3845 1.0892 17.3845 1.0893C17.3845 1.08949 17.3845 1.08972 17.3844 1.08997C17.3844 1.09048 17.3844 1.09112 17.3843 1.09188C17.3842 1.0934 17.3841 1.09542 17.3839 1.09792C17.3836 1.10292 17.3833 1.10985 17.3829 1.11864C17.382 1.13622 17.3811 1.16121 17.3806 1.19293C17.3795 1.25634 17.3798 1.3468 17.3853 1.45872C17.3962 1.68222 17.4279 1.99318 17.5107 2.34621C17.6761 3.05101 18.0492 3.93774 18.883 4.62104L19.1999 4.2343ZM21.2936 8.85534C21.5377 8.80144 21.5377 8.80138 21.5377 8.80131C21.5377 8.80127 21.5377 8.80119 21.5377 8.80111C21.5376 8.80095 21.5376 8.80075 21.5375 8.8005C21.5374 8.79999 21.5373 8.79929 21.5371 8.79841C21.5367 8.79664 21.5361 8.79411 21.5354 8.79085C21.5339 8.78434 21.5317 8.77488 21.5289 8.76264C21.5231 8.73817 21.5146 8.70255 21.5033 8.65702C21.4806 8.56597 21.4467 8.43519 21.4011 8.27456C21.3099 7.95356 21.1719 7.5119 20.9841 7.02907C20.6129 6.07463 20.0308 4.9152 19.1999 4.2343L18.883 4.62104C19.6082 5.2153 20.1523 6.2697 20.5181 7.21031C20.6988 7.675 20.8321 8.10116 20.9201 8.41112C20.964 8.56595 20.9966 8.69142 21.0181 8.77776C21.0288 8.82092 21.0368 8.85428 21.042 8.8766C21.0446 8.88777 21.0466 8.89617 21.0478 8.90166C21.0484 8.90441 21.0489 8.90642 21.0492 8.90769C21.0493 8.90833 21.0494 8.90877 21.0495 8.90903C21.0495 8.90916 21.0495 8.90924 21.0495 8.90928C21.0495 8.9093 21.0495 8.90928 21.0495 8.90929C21.0495 8.90927 21.0495 8.90924 21.2936 8.85534ZM20.2262 5.09447C20.6304 5.88902 20.8365 6.82629 20.9404 7.57523C20.9921 7.94776 21.0179 8.26948 21.0308 8.49759C21.0373 8.61157 21.0405 8.70198 21.0421 8.76343C21.0429 8.79416 21.0432 8.81763 21.0434 8.83317C21.0435 8.84095 21.0436 8.84674 21.0436 8.85046C21.0436 8.85232 21.0436 8.85366 21.0436 8.85448C21.0436 8.85489 21.0436 8.85517 21.0436 8.85531C21.0436 8.85538 21.0436 8.85542 21.0436 8.85542C21.0436 8.85543 21.0436 8.85541 21.0436 8.85541C21.0436 8.85538 21.0436 8.85534 21.2936 8.85534C21.5436 8.85534 21.5436 8.85528 21.5436 8.85522C21.5436 8.85519 21.5436 8.85512 21.5436 8.85505C21.5436 8.85492 21.5436 8.85476 21.5436 8.85456C21.5436 8.85417 21.5436 8.85364 21.5436 8.85298C21.5436 8.85165 21.5436 8.8498 21.5436 8.84742C21.5436 8.84266 21.5435 8.83582 21.5434 8.82697C21.5432 8.80928 21.5427 8.78356 21.5419 8.75051C21.5402 8.68441 21.5368 8.58889 21.53 8.46938C21.5165 8.23051 21.4896 7.895 21.4357 7.50652C21.3284 6.73345 21.1123 5.73362 20.6719 4.86778L20.2262 5.09447ZM18.8662 3.77577L20.2738 5.15942L20.6243 4.80284L19.2167 3.41919L18.8662 3.77577ZM17.4162 1.22992L18.8238 3.72049L19.2591 3.47447L17.8515 0.983911L17.4162 1.22992ZM21.4983 25.5843C21.4126 25.3935 21.2621 24.9255 21.2621 24.3522H20.7621C20.7621 25.0044 20.9311 25.542 21.0422 25.7892L21.4983 25.5843ZM21.5751 22.9685C21.336 22.8956 21.336 22.8956 21.336 22.8957C21.336 22.8957 21.336 22.8957 21.336 22.8958C21.3359 22.8959 21.3359 22.896 21.3358 22.8962C21.3358 22.8965 21.3356 22.8969 21.3355 22.8975C21.3351 22.8986 21.3346 22.9002 21.334 22.9023C21.3328 22.9064 21.331 22.9124 21.3287 22.9201C21.3241 22.9356 21.3175 22.9581 21.3092 22.9869C21.2927 23.0445 21.2696 23.1271 21.2429 23.2284C21.1895 23.4307 21.1214 23.7087 21.0628 24.0106C21.0045 24.3114 20.9545 24.6416 20.9394 24.9465C20.9248 25.243 20.9407 25.5504 21.0402 25.7845L21.5004 25.5891C21.4472 25.4639 21.4249 25.2518 21.4388 24.9713C21.4523 24.6992 21.4976 24.3947 21.5537 24.1058C21.6095 23.8179 21.6748 23.5511 21.7263 23.356C21.752 23.2586 21.7742 23.1794 21.7898 23.1248C21.7977 23.0975 21.8039 23.0764 21.8081 23.0622C21.8102 23.0552 21.8118 23.0498 21.8128 23.0463C21.8133 23.0446 21.8137 23.0433 21.814 23.0425C21.8141 23.0421 21.8142 23.0418 21.8142 23.0416C21.8142 23.0415 21.8143 23.0415 21.8143 23.0415C21.8143 23.0415 21.8143 23.0415 21.8143 23.0415C21.8143 23.0415 21.8143 23.0415 21.5751 22.9685ZM21.2621 24.3522C21.2621 24.0823 21.3795 23.7806 21.514 23.5293C21.5794 23.4072 21.645 23.3041 21.6941 23.2317C21.7186 23.1956 21.7387 23.1674 21.7525 23.1487C21.7593 23.1393 21.7646 23.1324 21.7679 23.1279C21.7696 23.1257 21.7708 23.1242 21.7715 23.1233C21.7719 23.1228 21.7721 23.1225 21.7722 23.1224C21.7722 23.1224 21.7722 23.1224 21.7722 23.1224C21.7722 23.1224 21.7722 23.1224 21.7721 23.1225C21.7721 23.1225 21.7721 23.1225 21.7721 23.1225C21.7721 23.1226 21.772 23.1226 21.5751 22.9685C21.3783 22.8145 21.3782 22.8145 21.3782 22.8146C21.3782 22.8146 21.3781 22.8146 21.3781 22.8147C21.378 22.8148 21.378 22.8148 21.3779 22.815C21.3777 22.8152 21.3775 22.8154 21.3773 22.8157C21.3769 22.8163 21.3763 22.817 21.3755 22.818C21.3741 22.8198 21.3722 22.8224 21.3697 22.8256C21.3648 22.8321 21.358 22.8412 21.3494 22.8528C21.3324 22.876 21.3086 22.9093 21.2803 22.951C21.2238 23.0343 21.1486 23.1525 21.0732 23.2933C20.9262 23.5679 20.7621 23.958 20.7621 24.3522H21.2621ZM26.8293 27.6729C26.8293 27.462 26.9472 27.1763 27.257 27.1029L27.1418 26.6164C26.5217 26.7632 26.3293 27.3304 26.3293 27.6729H26.8293ZM27.2972 28.2666C27.1562 28.1481 27.0356 28.0445 26.9482 27.9374C26.8626 27.8326 26.8293 27.7488 26.8293 27.6729H26.3293C26.3293 27.9088 26.4369 28.1018 26.5609 28.2537C26.6831 28.4032 26.841 28.5363 26.9755 28.6493L27.2972 28.2666ZM27.5792 28.2388C27.5432 28.2585 27.4694 28.2675 27.3691 28.2545C27.3248 28.2487 27.285 28.2399 27.2563 28.2325C27.2422 28.2289 27.2312 28.2257 27.2243 28.2236C27.2208 28.2225 27.2184 28.2218 27.2172 28.2214C27.2166 28.2212 27.2162 28.2211 27.2162 28.2211C27.2162 28.2211 27.2163 28.2211 27.2164 28.2211C27.2165 28.2212 27.2166 28.2212 27.2167 28.2212C27.2168 28.2212 27.2168 28.2213 27.2169 28.2213C27.2169 28.2213 27.217 28.2213 27.217 28.2213C27.217 28.2213 27.2171 28.2214 27.1363 28.458C27.0556 28.6946 27.0556 28.6946 27.0557 28.6946C27.0557 28.6946 27.0558 28.6946 27.0558 28.6946C27.0559 28.6947 27.056 28.6947 27.0561 28.6947C27.0563 28.6948 27.0565 28.6949 27.0567 28.695C27.0572 28.6951 27.0578 28.6953 27.0584 28.6955C27.0597 28.696 27.0614 28.6965 27.0634 28.6971C27.0673 28.6984 27.0726 28.7001 27.0791 28.702C27.092 28.706 27.1098 28.7111 27.1315 28.7167C27.1746 28.7278 27.2351 28.7412 27.3046 28.7503C27.4318 28.7668 27.6395 28.7759 27.8196 28.6772L27.5792 28.2388ZM27.257 27.1029C27.2042 27.1154 27.2175 27.0606 27.2927 27.1798C27.3572 27.2818 27.4175 27.4436 27.4614 27.6304C27.5048 27.8143 27.5274 28.0015 27.5278 28.1434C27.528 28.2155 27.5223 28.2652 27.5157 28.2932C27.5124 28.3072 27.5108 28.3072 27.5151 28.2993C27.5189 28.2924 27.5367 28.262 27.5792 28.2388L27.8196 28.6772C27.889 28.6391 27.9302 28.5824 27.9538 28.5393C27.978 28.4951 27.9927 28.4489 28.0023 28.4083C28.0215 28.3271 28.028 28.2341 28.0278 28.1421C28.0273 27.956 27.9987 27.7304 27.9481 27.5158C27.8983 27.304 27.8221 27.0816 27.7155 26.9128C27.6196 26.7611 27.4271 26.5488 27.1418 26.6164L27.257 27.1029ZM2.25456 22.4418C2.09676 22.4418 1.82415 22.3573 1.5837 22.2544C1.46836 22.2051 1.37634 22.1584 1.32559 22.1277C1.29112 22.1068 1.30119 22.1084 1.32026 22.1303C1.32634 22.1373 1.34521 22.1596 1.35925 22.1951C1.37391 22.2322 1.39335 22.313 1.34697 22.3995C1.30349 22.4806 1.23262 22.5085 1.20441 22.5171C1.17371 22.5264 1.14965 22.5267 1.14222 22.5267V22.0267C1.12593 22.0267 1.09488 22.0278 1.05902 22.0387C1.02564 22.0488 0.951404 22.0791 0.906294 22.1633C0.85829 22.2528 0.877824 22.3373 0.894226 22.3788C0.910014 22.4188 0.932265 22.4461 0.943295 22.4588C0.982146 22.5034 1.03695 22.5374 1.06682 22.5555C1.14475 22.6026 1.2598 22.6597 1.38704 22.7141C1.63174 22.8188 1.98629 22.9418 2.25456 22.9418V22.4418ZM3.28077 22.1088C2.98084 22.2597 2.609 22.4418 2.25456 22.4418V22.9418C2.74783 22.9418 3.22633 22.6959 3.50552 22.5554L3.28077 22.1088ZM3.39472 22.052C3.35882 22.0695 3.32013 22.089 3.28081 22.1088L3.50548 22.5554C3.54561 22.5352 3.58129 22.5173 3.61384 22.5014L3.39472 22.052ZM4.33038 21.1286L3.33035 22.0971L3.67821 22.4563L4.67824 21.4877L4.33038 21.1286ZM3.4885 22.086L4.61458 21.5325L4.39403 21.0838L3.26796 21.6373L3.4885 22.086ZM2.25456 22.3883C2.63462 22.3883 2.94404 22.3125 3.16025 22.2355C3.26839 22.197 3.35359 22.158 3.41318 22.1278C3.44299 22.1127 3.46646 22.0998 3.48326 22.0901C3.49167 22.0852 3.49841 22.0812 3.50345 22.0781C3.50597 22.0766 3.50806 22.0753 3.50973 22.0742C3.51056 22.0737 3.51129 22.0733 3.51191 22.0729C3.51222 22.0727 3.5125 22.0725 3.51275 22.0723C3.51288 22.0723 3.513 22.0722 3.51311 22.0721C3.51317 22.0721 3.51325 22.072 3.51328 22.072C3.51336 22.072 3.51344 22.0719 3.37823 21.8616C3.24302 21.6513 3.2431 21.6513 3.24317 21.6512C3.24319 21.6512 3.24326 21.6512 3.2433 21.6512C3.24339 21.6511 3.24347 21.651 3.24355 21.651C3.2437 21.6509 3.24382 21.6508 3.24392 21.6508C3.24412 21.6506 3.24422 21.6506 3.24422 21.6506C3.24421 21.6506 3.2438 21.6508 3.243 21.6513C3.2414 21.6523 3.23822 21.6542 3.2335 21.6569C3.22405 21.6624 3.20849 21.671 3.18712 21.6819C3.14434 21.7036 3.07861 21.7338 2.9925 21.7645C2.82019 21.8258 2.56777 21.8883 2.25456 21.8883V22.3883ZM1.14222 22.2767C1.25699 22.4988 1.25685 22.4989 1.25671 22.499C1.25667 22.499 1.25653 22.499 1.25644 22.4991C1.25627 22.4992 1.25609 22.4993 1.25592 22.4994C1.25558 22.4995 1.25526 22.4997 1.25496 22.4999C1.25435 22.5002 1.2538 22.5004 1.25333 22.5007C1.25238 22.5011 1.25171 22.5014 1.25133 22.5016C1.25055 22.502 1.25093 22.5018 1.25252 22.5011C1.25572 22.4998 1.26381 22.4965 1.27746 22.4919C1.30476 22.4826 1.35418 22.468 1.43083 22.4527C1.58433 22.4219 1.84562 22.3883 2.25456 22.3883V21.8883C1.81893 21.8883 1.52405 21.924 1.33253 21.9624C1.23666 21.9816 1.16636 22.0016 1.11706 22.0183C1.0924 22.0267 1.07298 22.0342 1.05823 22.0404C1.05086 22.0435 1.04465 22.0463 1.03955 22.0487C1.03699 22.0499 1.03472 22.051 1.0327 22.052C1.0317 22.0525 1.03076 22.0529 1.02988 22.0534C1.02945 22.0536 1.02903 22.0538 1.02862 22.054C1.02842 22.0541 1.02822 22.0542 1.02803 22.0543C1.02793 22.0544 1.02779 22.0544 1.02774 22.0545C1.0276 22.0545 1.02746 22.0546 1.14222 22.2767ZM19.1291 24.7478C18.9343 24.9872 18.6444 25.3861 18.4018 25.8129C18.1664 26.2272 17.9469 26.7159 17.9469 27.1195H18.4469C18.4469 26.8589 18.6028 26.4713 18.8365 26.06C19.0632 25.6613 19.3364 25.2853 19.5169 25.0634L19.1291 24.7478ZM4.61458 21.5325L5.17762 21.2558L4.95707 20.8071L4.39403 21.0838L4.61458 21.5325ZM11.3176 2.2678L11.3159 2.25964L10.8266 2.36271L10.8283 2.37086L11.3176 2.2678Z" transform="translate(1 6)" fill="#396C9C"/>
<path d="M1.488 36.232H3.216C3.648 36.232 3.864 36.016 3.864 35.584V21.328C3.864 20.896 3.648 20.68 3.216 20.68H1.488V19.912H8.448V20.68H6.72C6.288 20.68 6.072 20.896 6.072 21.328V27.64H13.32V21.328C13.32 20.896 13.104 20.68 12.672 20.68H10.944V19.912H17.904V20.68H16.176C15.744 20.68 15.528 20.896 15.528 21.328V35.584C15.528 36.016 15.744 36.232 16.176 36.232H17.904V37H10.944V36.232H12.672C13.104 36.232 13.32 36.016 13.32 35.584V28.408H6.072V35.584C6.072 36.016 6.288 36.232 6.72 36.232H8.448V37H1.488V36.232ZM23.1381 37.288C22.2901 37.288 21.5541 37.08 20.9301 36.664C20.3221 36.248 20.0181 35.512 20.0181 34.456C20.0181 33.64 20.2261 33 20.6421 32.536C21.0581 32.072 21.5381 31.744 22.0821 31.552C22.6421 31.344 23.3141 31.168 24.0981 31.024L26.3061 30.616V28.576C26.3061 27.088 25.5621 26.344 24.0741 26.344C23.5301 26.344 23.0341 26.488 22.5861 26.776C22.1381 27.048 21.9141 27.36 21.9141 27.712C21.9141 27.872 21.9381 27.992 21.9861 28.072C22.0181 28.12 22.0661 28.168 22.1301 28.216C22.2101 28.264 22.2821 28.296 22.3461 28.312C22.6341 28.392 22.8501 28.504 22.9941 28.648C23.1541 28.792 23.2341 28.992 23.2341 29.248C23.2341 29.584 23.1301 29.824 22.9221 29.968C22.7301 30.112 22.4821 30.184 22.1781 30.184C21.8261 30.184 21.5061 30.048 21.2181 29.776C20.9301 29.504 20.7861 29.112 20.7861 28.6C20.7861 28.008 20.9461 27.496 21.2661 27.064C21.6021 26.632 22.0261 26.312 22.5381 26.104C23.0661 25.88 23.6021 25.768 24.1461 25.768C25.2021 25.768 26.1141 26.048 26.8821 26.608C27.6501 27.152 28.0341 28.008 28.0341 29.176V35.08C28.0341 35.88 28.2821 36.28 28.7781 36.28C29.1781 36.28 29.4661 36.048 29.6421 35.584C29.8181 35.12 29.9061 34.552 29.9061 33.88H30.3381C30.3381 34.84 30.1941 35.648 29.9061 36.304C29.6341 36.96 29.1381 37.288 28.4181 37.288C27.7301 37.288 27.2101 37.088 26.8581 36.688C26.5221 36.272 26.3381 35.704 26.3061 34.984L26.1861 34.936C25.9461 35.496 25.5541 36.032 25.0101 36.544C24.4821 37.04 23.8581 37.288 23.1381 37.288ZM23.5221 36.424C24.2421 36.424 24.8021 36.144 25.2021 35.584C25.6181 35.008 25.9861 34.28 26.3061 33.4V31.12L24.2181 31.576C23.4501 31.736 22.8901 32.056 22.5381 32.536C22.2021 33 22.0341 33.664 22.0341 34.528C22.0341 35.264 22.1861 35.768 22.4901 36.04C22.7941 36.296 23.1381 36.424 23.5221 36.424ZM31.4454 41.944H32.6934C32.8854 41.944 33.0214 41.904 33.1014 41.824C33.1814 41.744 33.2214 41.608 33.2214 41.416V27.16C33.2214 26.968 33.1814 26.832 33.1014 26.752C33.0214 26.672 32.8854 26.632 32.6934 26.632H31.4454V26.056H34.9494V27.832L35.0454 27.856C35.3494 27.216 35.7334 26.712 36.1974 26.344C36.6774 25.96 37.2214 25.768 37.8294 25.768C38.5814 25.768 39.2774 26.024 39.9174 26.536C40.5734 27.032 41.0934 27.72 41.4774 28.6C41.8614 29.48 42.0534 30.456 42.0534 31.528C42.0534 32.6 41.8614 33.576 41.4774 34.456C41.0934 35.336 40.5734 36.032 39.9174 36.544C39.2774 37.04 38.5814 37.288 37.8294 37.288C37.2054 37.288 36.6454 37.088 36.1494 36.688C35.6534 36.272 35.2854 35.776 35.0454 35.2L34.9494 35.224V41.416C34.9494 41.608 34.9894 41.744 35.0694 41.824C35.1494 41.904 35.2854 41.944 35.4774 41.944H36.7254V42.52H31.4454V41.944ZM37.5654 36.616C38.3494 36.616 38.9414 36.176 39.3414 35.296C39.7414 34.416 39.9414 33.16 39.9414 31.528C39.9414 29.896 39.7414 28.64 39.3414 27.76C38.9414 26.88 38.3494 26.44 37.5654 26.44C37.0854 26.44 36.6454 26.616 36.2454 26.968C35.8454 27.32 35.5254 27.808 35.2854 28.432C35.0614 29.04 34.9494 29.704 34.9494 30.424V32.632C34.9494 33.352 35.0614 34.024 35.2854 34.648C35.5254 35.256 35.8454 35.736 36.2454 36.088C36.6454 36.44 37.0854 36.616 37.5654 36.616ZM43.8673 41.944H45.1153C45.3073 41.944 45.4433 41.904 45.5233 41.824C45.6033 41.744 45.6433 41.608 45.6433 41.416V27.16C45.6433 26.968 45.6033 26.832 45.5233 26.752C45.4433 26.672 45.3073 26.632 45.1153 26.632H43.8673V26.056H47.3713V27.832L47.4673 27.856C47.7713 27.216 48.1553 26.712 48.6193 26.344C49.0993 25.96 49.6433 25.768 50.2513 25.768C51.0033 25.768 51.6993 26.024 52.3393 26.536C52.9953 27.032 53.5153 27.72 53.8993 28.6C54.2833 29.48 54.4753 30.456 54.4753 31.528C54.4753 32.6 54.2833 33.576 53.8993 34.456C53.5153 35.336 52.9953 36.032 52.3393 36.544C51.6993 37.04 51.0033 37.288 50.2513 37.288C49.6273 37.288 49.0673 37.088 48.5713 36.688C48.0753 36.272 47.7073 35.776 47.4673 35.2L47.3713 35.224V41.416C47.3713 41.608 47.4113 41.744 47.4913 41.824C47.5713 41.904 47.7073 41.944 47.8993 41.944H49.1473V42.52H43.8673V41.944ZM49.9873 36.616C50.7713 36.616 51.3633 36.176 51.7633 35.296C52.1633 34.416 52.3633 33.16 52.3633 31.528C52.3633 29.896 52.1633 28.64 51.7633 27.76C51.3633 26.88 50.7713 26.44 49.9873 26.44C49.5073 26.44 49.0673 26.616 48.6673 26.968C48.2673 27.32 47.9473 27.808 47.7073 28.432C47.4833 29.04 47.3713 29.704 47.3713 30.424V32.632C47.3713 33.352 47.4833 34.024 47.7073 34.648C47.9473 35.256 48.2673 35.736 48.6673 36.088C49.0673 36.44 49.5073 36.616 49.9873 36.616ZM58.8332 42.712C58.2092 42.712 57.6972 42.512 57.2972 42.112C57.0892 41.92 56.9212 41.688 56.7932 41.416C56.6812 41.16 56.6252 40.888 56.6252 40.6C56.6252 40.392 56.6572 40.192 56.7212 40C56.8012 39.824 56.8972 39.688 57.0092 39.592C57.2492 39.352 57.5212 39.232 57.8252 39.232C58.1932 39.232 58.4652 39.344 58.6412 39.568C58.8332 39.808 58.9292 40.104 58.9292 40.456C58.9292 40.648 58.8652 40.872 58.7372 41.128C58.6412 41.288 58.5932 41.44 58.5932 41.584C58.5932 41.824 58.7532 41.944 59.0732 41.944C59.5532 41.944 59.9532 41.752 60.2732 41.368C60.6092 41 60.8572 40.56 61.0172 40.048L61.6652 37.96L58.2572 28.048C58.0652 27.536 57.8812 27.176 57.7052 26.968C57.5292 26.744 57.2412 26.632 56.8412 26.632H56.0492V26.056H61.4732V26.632H60.7052C60.5132 26.632 60.3372 26.688 60.1772 26.8C60.0172 26.896 59.9372 27.032 59.9372 27.208C59.9372 27.48 59.9852 27.744 60.0812 28L62.5772 35.368L64.5692 28.792C64.6332 28.6 64.6892 28.384 64.7372 28.144C64.8012 27.904 64.8332 27.712 64.8332 27.568C64.8332 27.296 64.7532 27.072 64.5932 26.896C64.4332 26.72 64.2252 26.632 63.9692 26.632H63.3932V26.056H67.7612V26.632H67.2092C66.8572 26.632 66.5292 26.752 66.2252 26.992C65.9372 27.216 65.7132 27.568 65.5532 28.048L61.6892 40.336C61.5132 40.928 61.1772 41.472 60.6812 41.968C60.1852 42.464 59.5692 42.712 58.8332 42.712ZM76.5583 36.232H78.2863C78.7183 36.232 78.9343 36.016 78.9343 35.584V21.328C78.9343 21.104 78.8783 20.944 78.7663 20.848C78.6703 20.736 78.5103 20.68 78.2863 20.68H76.5583V19.912H84.5743C85.6943 19.912 86.6863 20.104 87.5503 20.488C88.4303 20.856 89.1103 21.384 89.5903 22.072C90.0863 22.744 90.3343 23.512 90.3343 24.376C90.3343 25.256 90.0863 26.04 89.5903 26.728C89.1103 27.416 88.4303 27.96 87.5503 28.36C86.6863 28.744 85.6943 28.936 84.5743 28.936H81.1423V35.584C81.1423 35.808 81.1903 35.976 81.2863 36.088C81.3823 36.184 81.5503 36.232 81.7903 36.232H83.9023V37H76.5583V36.232ZM84.8863 28.168C85.7503 28.168 86.4463 27.8 86.9743 27.064C87.5183 26.312 87.7903 25.416 87.7903 24.376C87.7903 23.336 87.5263 22.464 86.9983 21.76C86.4703 21.04 85.7663 20.68 84.8863 20.68H81.7903C81.5663 20.68 81.3983 20.736 81.2863 20.848C81.1903 20.944 81.1423 21.104 81.1423 21.328V28.168H84.8863ZM96.2366 37.288C94.7486 37.288 93.5486 36.784 92.6366 35.776C91.7406 34.768 91.2926 33.368 91.2926 31.576C91.2926 30.552 91.4926 29.6 91.8926 28.72C92.2926 27.824 92.8446 27.112 93.5486 26.584C94.2686 26.04 95.0686 25.768 95.9486 25.768C96.9246 25.768 97.7246 26.032 98.3486 26.56C98.9726 27.088 99.4206 27.76 99.6926 28.576C99.9806 29.376 100.125 30.2 100.125 31.048C100.125 31.224 100.069 31.344 99.9566 31.408C99.8446 31.456 99.6526 31.48 99.3806 31.48H93.4046C93.4046 33.08 93.6286 34.352 94.0766 35.296C94.5406 36.24 95.2926 36.712 96.3326 36.712C97.0686 36.712 97.7566 36.432 98.3966 35.872C99.0526 35.312 99.4686 34.44 99.6446 33.256H100.221C100.125 34.424 99.7166 35.392 98.9966 36.16C98.2926 36.912 97.3726 37.288 96.2366 37.288ZM98.0606 30.904C98.0606 29.624 97.8926 28.544 97.5566 27.664C97.2206 26.784 96.6686 26.344 95.9006 26.344C95.0846 26.344 94.4606 26.792 94.0286 27.688C93.6126 28.568 93.4046 29.64 93.4046 30.904H98.0606ZM106.124 37.288C105.404 37.288 104.804 37.032 104.324 36.52C103.86 36.008 103.628 35.312 103.628 34.432V26.728H101.852V26.056H102.38C103.1 26.056 103.66 25.672 104.06 24.904C104.476 24.12 104.684 23.256 104.684 22.312V21.448H105.356V26.056H108.332V26.728H105.356V34.552C105.356 35.032 105.452 35.432 105.644 35.752C105.836 36.072 106.164 36.232 106.628 36.232C107.764 36.232 108.332 35.272 108.332 33.352H108.764C108.764 34.424 108.604 35.352 108.284 36.136C107.98 36.904 107.26 37.288 106.124 37.288ZM111.01 32.536H111.442L112.33 34.432C113.194 35.952 114.314 36.712 115.69 36.712C116.426 36.712 116.97 36.536 117.322 36.184C117.69 35.816 117.874 35.32 117.874 34.696C117.874 34.328 117.73 34 117.442 33.712C117.17 33.408 116.802 33.168 116.338 32.992L113.602 31.888C112.738 31.536 112.058 31.112 111.562 30.616C111.066 30.12 110.818 29.488 110.818 28.72C110.818 27.744 111.122 27.008 111.73 26.512C112.338 26.016 113.106 25.768 114.034 25.768C114.498 25.768 114.93 25.848 115.33 26.008C115.746 26.152 116.09 26.328 116.362 26.536C116.714 26.792 116.978 26.92 117.154 26.92C117.362 26.92 117.49 26.776 117.538 26.488L117.586 26.008H118.018V29.656H117.586L117.25 28.816C116.882 27.904 116.394 27.264 115.786 26.896C115.194 26.528 114.602 26.344 114.01 26.344C113.418 26.344 112.93 26.496 112.546 26.8C112.162 27.088 111.97 27.496 111.97 28.024C111.97 28.488 112.154 28.872 112.522 29.176C112.906 29.464 113.426 29.744 114.082 30.016L116.674 31.096C117.442 31.416 118.018 31.808 118.402 32.272C118.786 32.72 118.978 33.352 118.978 34.168C118.978 35.24 118.674 36.032 118.066 36.544C117.458 37.04 116.658 37.288 115.666 37.288C115.074 37.288 114.594 37.208 114.226 37.048C113.858 36.888 113.498 36.672 113.146 36.4C113.002 36.288 112.858 36.192 112.714 36.112C112.57 36.032 112.442 35.992 112.33 35.992C111.946 35.992 111.682 36.264 111.538 36.808L111.442 37.288H111.01V32.536Z" transform="translate(48)" fill="#396C9C"/>
<path d="M0 38.976H119.986V40.176H0V38.976Z" transform="translate(48)" fill="#396C9C"/>
<path d="M11.0885 8.162C10.5725 8.162 10.1225 8.012 9.73848 7.712C9.36048 7.406 9.06948 6.995 8.86548 6.479C8.66748 5.957 8.56848 5.378 8.56848 4.742C8.56848 4.136 8.67048 3.581 8.87448 3.077C9.07848 2.573 9.36948 2.174 9.74748 1.88C10.1255 1.58 10.5665 1.43 11.0705 1.43C11.3345 1.43 11.5835 1.49 11.8175 1.61C12.0515 1.73 12.2435 1.859 12.3935 1.997C12.5375 2.129 12.6335 2.195 12.6815 2.195C12.7295 2.195 12.7625 2.18 12.7805 2.15C12.8045 2.12 12.8285 2.072 12.8525 2.006L13.0235 1.502H13.2485L13.2845 4.292H13.0325C12.9005 3.722 12.7295 3.245 12.5195 2.861C12.3095 2.471 12.0785 2.183 11.8265 1.997C11.5805 1.811 11.3345 1.718 11.0885 1.718C10.6745 1.718 10.3535 1.844 10.1255 2.096C9.89748 2.342 9.73848 2.687 9.64848 3.131C9.56448 3.575 9.52248 4.13 9.52248 4.796C9.52248 5.462 9.56448 6.017 9.64848 6.461C9.73848 6.905 9.89748 7.253 10.1255 7.505C10.3535 7.751 10.6745 7.874 11.0885 7.874C11.3105 7.874 11.5235 7.796 11.7275 7.64C11.9315 7.478 12.0965 7.274 12.2225 7.028C12.3545 6.782 12.4205 6.539 12.4205 6.299V5.489C12.4205 5.405 12.3995 5.345 12.3575 5.309C12.3215 5.267 12.2615 5.246 12.1775 5.246H11.1785V4.958H14.1485V5.246H13.4915C13.4075 5.246 13.3445 5.267 13.3025 5.309C13.2665 5.345 13.2485 5.405 13.2485 5.489V8.117H12.9605V7.298C12.9605 7.196 12.9485 7.121 12.9245 7.073C12.9005 7.019 12.8615 6.992 12.8075 6.992C12.7415 6.992 12.6845 7.016 12.6365 7.064C12.5885 7.112 12.5405 7.178 12.4925 7.262C12.3545 7.484 12.1595 7.691 11.9075 7.883C11.6555 8.069 11.3825 8.162 11.0885 8.162ZM14.758 7.784H15.136C15.208 7.784 15.259 7.769 15.289 7.739C15.319 7.709 15.334 7.658 15.334 7.586V4.31C15.334 4.238 15.319 4.187 15.289 4.157C15.259 4.127 15.208 4.112 15.136 4.112H14.758V3.896H15.982V4.796L16.018 4.805C16.144 4.493 16.306 4.247 16.504 4.067C16.708 3.881 16.924 3.788 17.152 3.788C17.38 3.788 17.566 3.854 17.71 3.986C17.854 4.118 17.926 4.298 17.926 4.526C17.926 4.658 17.878 4.787 17.782 4.913C17.692 5.039 17.575 5.102 17.431 5.102C17.317 5.102 17.221 5.072 17.143 5.012C17.065 4.952 17.026 4.868 17.026 4.76C17.026 4.634 17.086 4.526 17.206 4.436C17.26 4.4 17.299 4.367 17.323 4.337C17.353 4.307 17.368 4.268 17.368 4.22C17.368 4.166 17.341 4.124 17.287 4.094C17.239 4.058 17.17 4.04 17.08 4.04C16.894 4.04 16.714 4.13 16.54 4.31C16.372 4.49 16.237 4.724 16.135 5.012C16.033 5.3 15.982 5.6 15.982 5.912V7.586C15.982 7.658 15.997 7.709 16.027 7.739C16.057 7.769 16.108 7.784 16.18 7.784H16.558V8H14.758V7.784ZM20.3394 8.108C20.0094 8.108 19.7064 8.012 19.4304 7.82C19.1544 7.622 18.9354 7.358 18.7734 7.028C18.6174 6.698 18.5394 6.338 18.5394 5.948C18.5394 5.558 18.6174 5.198 18.7734 4.868C18.9354 4.538 19.1544 4.277 19.4304 4.085C19.7064 3.887 20.0094 3.788 20.3394 3.788C20.6694 3.788 20.9724 3.887 21.2484 4.085C21.5244 4.277 21.7404 4.538 21.8964 4.868C22.0584 5.198 22.1394 5.558 22.1394 5.948C22.1394 6.338 22.0584 6.698 21.8964 7.028C21.7404 7.358 21.5244 7.622 21.2484 7.82C20.9724 8.012 20.6694 8.108 20.3394 8.108ZM20.3394 7.892C20.6994 7.892 20.9574 7.724 21.1134 7.388C21.2694 7.046 21.3474 6.566 21.3474 5.948C21.3474 5.33 21.2694 4.853 21.1134 4.517C20.9574 4.175 20.6994 4.004 20.3394 4.004C19.9794 4.004 19.7214 4.175 19.5654 4.517C19.4094 4.853 19.3314 5.33 19.3314 5.948C19.3314 6.566 19.4094 7.046 19.5654 7.388C19.7214 7.724 19.9794 7.892 20.3394 7.892ZM22.9143 7.784H23.2923C23.3643 7.784 23.4153 7.769 23.4453 7.739C23.4753 7.709 23.4903 7.658 23.4903 7.586V4.31C23.4903 4.238 23.4753 4.187 23.4453 4.157C23.4153 4.127 23.3643 4.112 23.2923 4.112H22.9143V3.896H24.1383V4.616L24.1743 4.625C24.3003 4.349 24.4623 4.142 24.6603 4.004C24.8643 3.86 25.0803 3.788 25.3083 3.788C25.6623 3.788 25.9233 3.884 26.0913 4.076C26.2653 4.268 26.3823 4.496 26.4423 4.76H26.4783C26.5503 4.52 26.6913 4.298 26.9013 4.094C27.1173 3.89 27.3663 3.788 27.6483 3.788C28.0863 3.788 28.3953 3.935 28.5753 4.229C28.7613 4.523 28.8543 4.868 28.8543 5.264V7.586C28.8543 7.658 28.8693 7.709 28.8993 7.739C28.9293 7.769 28.9803 7.784 29.0523 7.784H29.4303V8H27.6303V7.784H28.0083C28.0803 7.784 28.1313 7.769 28.1613 7.739C28.1913 7.709 28.2063 7.658 28.2063 7.586V4.949C28.2063 4.709 28.1493 4.499 28.0353 4.319C27.9213 4.133 27.7563 4.04 27.5403 4.04C27.3603 4.04 27.1893 4.112 27.0273 4.256C26.8713 4.394 26.7423 4.586 26.6403 4.832C26.5443 5.078 26.4963 5.354 26.4963 5.66V7.586C26.4963 7.658 26.5113 7.709 26.5413 7.739C26.5713 7.769 26.6223 7.784 26.6943 7.784H27.0723V8H25.2723V7.784H25.6503C25.7223 7.784 25.7733 7.769 25.8033 7.739C25.8333 7.709 25.8483 7.658 25.8483 7.586V4.949C25.8483 4.709 25.7913 4.499 25.6773 4.319C25.5633 4.133 25.3983 4.04 25.1823 4.04C25.0023 4.04 24.8313 4.112 24.6693 4.256C24.5133 4.394 24.3843 4.586 24.2823 4.832C24.1863 5.078 24.1383 5.354 24.1383 5.66V7.586C24.1383 7.658 24.1533 7.709 24.1833 7.739C24.2133 7.769 24.2643 7.784 24.3363 7.784H24.7143V8H22.9143V7.784ZM30.0598 7.784H30.4378C30.5098 7.784 30.5608 7.769 30.5908 7.739C30.6208 7.709 30.6358 7.658 30.6358 7.586V4.31C30.6358 4.238 30.6208 4.187 30.5908 4.157C30.5608 4.127 30.5098 4.112 30.4378 4.112H30.0598V3.896H31.2838V4.616L31.3198 4.625C31.4458 4.349 31.6078 4.142 31.8058 4.004C32.0098 3.86 32.2258 3.788 32.4538 3.788C32.8078 3.788 33.0688 3.884 33.2368 4.076C33.4108 4.268 33.5278 4.496 33.5878 4.76H33.6238C33.6958 4.52 33.8368 4.298 34.0468 4.094C34.2628 3.89 34.5118 3.788 34.7938 3.788C35.2318 3.788 35.5408 3.935 35.7208 4.229C35.9068 4.523 35.9998 4.868 35.9998 5.264V7.586C35.9998 7.658 36.0148 7.709 36.0448 7.739C36.0748 7.769 36.1258 7.784 36.1978 7.784H36.5758V8H34.7758V7.784H35.1538C35.2258 7.784 35.2768 7.769 35.3068 7.739C35.3368 7.709 35.3518 7.658 35.3518 7.586V4.949C35.3518 4.709 35.2948 4.499 35.1808 4.319C35.0668 4.133 34.9018 4.04 34.6858 4.04C34.5058 4.04 34.3348 4.112 34.1728 4.256C34.0168 4.394 33.8878 4.586 33.7858 4.832C33.6898 5.078 33.6418 5.354 33.6418 5.66V7.586C33.6418 7.658 33.6568 7.709 33.6868 7.739C33.7168 7.769 33.7678 7.784 33.8398 7.784H34.2178V8H32.4178V7.784H32.7958C32.8678 7.784 32.9188 7.769 32.9488 7.739C32.9788 7.709 32.9938 7.658 32.9938 7.586V4.949C32.9938 4.709 32.9368 4.499 32.8228 4.319C32.7088 4.133 32.5438 4.04 32.3278 4.04C32.1478 4.04 31.9768 4.112 31.8148 4.256C31.6588 4.394 31.5298 4.586 31.4278 4.832C31.3318 5.078 31.2838 5.354 31.2838 5.66V7.586C31.2838 7.658 31.2988 7.709 31.3288 7.739C31.3588 7.769 31.4098 7.784 31.4818 7.784H31.8598V8H30.0598V7.784ZM38.0513 2.78C37.9193 2.78 37.8083 2.735 37.7183 2.645C37.6283 2.555 37.5833 2.444 37.5833 2.312C37.5833 2.174 37.6283 2.063 37.7183 1.979C37.8083 1.889 37.9193 1.844 38.0513 1.844C38.1893 1.844 38.3003 1.889 38.3843 1.979C38.4743 2.063 38.5193 2.174 38.5193 2.312C38.5193 2.444 38.4743 2.555 38.3843 2.645C38.3003 2.735 38.1893 2.78 38.0513 2.78ZM37.2053 7.784H37.5833C37.6553 7.784 37.7063 7.769 37.7363 7.739C37.7663 7.709 37.7813 7.658 37.7813 7.586V4.31C37.7813 4.238 37.7663 4.187 37.7363 4.157C37.7063 4.127 37.6553 4.112 37.5833 4.112H37.2053V3.896H38.4293V7.586C38.4293 7.658 38.4443 7.709 38.4743 7.739C38.5043 7.769 38.5553 7.784 38.6273 7.784H39.0053V8H37.2053V7.784ZM39.6311 7.784H40.0091C40.0811 7.784 40.1321 7.769 40.1621 7.739C40.1921 7.709 40.2071 7.658 40.2071 7.586V4.31C40.2071 4.238 40.1921 4.187 40.1621 4.157C40.1321 4.127 40.0811 4.112 40.0091 4.112H39.6311V3.896H40.8551V4.634L40.8911 4.643C41.0291 4.355 41.2001 4.142 41.4041 4.004C41.6081 3.86 41.8331 3.788 42.0791 3.788C42.5171 3.788 42.8261 3.923 43.0061 4.193C43.1921 4.463 43.2851 4.787 43.2851 5.165V7.586C43.2851 7.658 43.3001 7.709 43.3301 7.739C43.3601 7.769 43.4111 7.784 43.4831 7.784H43.8611V8H42.0611V7.784H42.4391C42.5111 7.784 42.5621 7.769 42.5921 7.739C42.6221 7.709 42.6371 7.658 42.6371 7.586V4.994C42.6371 4.73 42.5831 4.505 42.4751 4.319C42.3731 4.133 42.1961 4.04 41.9441 4.04C41.7341 4.04 41.5451 4.115 41.3771 4.265C41.2151 4.409 41.0861 4.61 40.9901 4.868C40.9001 5.12 40.8551 5.402 40.8551 5.714V7.586C40.8551 7.658 40.8701 7.709 40.9001 7.739C40.9301 7.769 40.9811 7.784 41.0531 7.784H41.4311V8H39.6311V7.784ZM46.5614 10.142C46.0334 10.142 45.5774 10.058 45.1934 9.89C44.8094 9.722 44.6174 9.458 44.6174 9.098C44.6174 8.876 44.7044 8.681 44.8784 8.513C45.0524 8.345 45.2594 8.243 45.4994 8.207V8.18C44.9714 8.066 44.7074 7.844 44.7074 7.514C44.7074 7.268 44.8004 7.076 44.9864 6.938C45.1784 6.794 45.4124 6.698 45.6884 6.65V6.623C45.4364 6.515 45.2204 6.353 45.0404 6.137C44.8664 5.915 44.7794 5.624 44.7794 5.264C44.7794 4.958 44.8544 4.694 45.0044 4.472C45.1544 4.25 45.3494 4.082 45.5894 3.968C45.8354 3.848 46.0994 3.788 46.3814 3.788C46.5554 3.788 46.7264 3.818 46.8944 3.878C47.0684 3.932 47.2154 3.998 47.3354 4.076C47.4614 4.148 47.5424 4.208 47.5784 4.256C47.6324 4.1 47.7194 3.983 47.8394 3.905C47.9594 3.827 48.0794 3.788 48.1994 3.788C48.4034 3.788 48.5714 3.848 48.7034 3.968C48.8354 4.088 48.9014 4.244 48.9014 4.436C48.9014 4.58 48.8654 4.697 48.7934 4.787C48.7274 4.877 48.6374 4.922 48.5234 4.922C48.4274 4.922 48.3434 4.898 48.2714 4.85C48.1994 4.796 48.1634 4.712 48.1634 4.598C48.1634 4.466 48.2144 4.37 48.3164 4.31C48.3524 4.286 48.3764 4.265 48.3884 4.247C48.4064 4.223 48.4154 4.19 48.4154 4.148C48.4154 4.1 48.3914 4.064 48.3434 4.04C48.2954 4.016 48.2384 4.004 48.1724 4.004C48.0644 4.004 47.9654 4.049 47.8754 4.139C47.7914 4.223 47.7434 4.322 47.7314 4.436C47.8994 4.67 47.9834 4.946 47.9834 5.264C47.9834 5.564 47.9114 5.828 47.7674 6.056C47.6234 6.278 47.4284 6.449 47.1824 6.569C46.9424 6.683 46.6754 6.74 46.3814 6.74C46.0394 6.74 45.7334 6.788 45.4634 6.884C45.1994 6.974 45.0674 7.127 45.0674 7.343C45.0674 7.457 45.1184 7.535 45.2204 7.577C45.3224 7.619 45.4634 7.64 45.6434 7.64C45.7694 7.64 45.8714 7.637 45.9494 7.631C46.0214 7.625 46.1144 7.622 46.2284 7.622H47.1554C47.5394 7.622 47.8604 7.727 48.1184 7.937C48.3764 8.141 48.5054 8.444 48.5054 8.846C48.5054 9.266 48.3254 9.587 47.9654 9.809C47.6114 10.031 47.1434 10.142 46.5614 10.142ZM46.3814 6.524C46.6574 6.524 46.8734 6.413 47.0294 6.191C47.1854 5.969 47.2634 5.66 47.2634 5.264C47.2634 4.868 47.1854 4.559 47.0294 4.337C46.8734 4.115 46.6574 4.004 46.3814 4.004C46.1054 4.004 45.8894 4.115 45.7334 4.337C45.5774 4.559 45.4994 4.868 45.4994 5.264C45.4994 5.66 45.5774 5.969 45.7334 6.191C45.8894 6.413 46.1054 6.524 46.3814 6.524ZM46.5614 9.926C46.9934 9.926 47.3714 9.848 47.6954 9.692C48.0194 9.542 48.1814 9.284 48.1814 8.918C48.1814 8.732 48.1244 8.57 48.0104 8.432C47.9024 8.3 47.7104 8.234 47.4344 8.234H46.4354C46.0514 8.234 45.7184 8.297 45.4364 8.423C45.1544 8.555 45.0134 8.774 45.0134 9.08C45.0134 9.362 45.1724 9.572 45.4904 9.71C45.8084 9.854 46.1654 9.926 46.5614 9.926ZM54.6912 8.162C54.4392 8.162 54.1902 8.108 53.9442 8C53.7042 7.886 53.4942 7.763 53.3142 7.631C53.0622 7.439 52.9122 7.343 52.8642 7.343C52.7442 7.343 52.6662 7.472 52.6302 7.73L52.5942 8.09H52.3872L52.3242 5.246H52.5402C52.5762 5.69 52.6992 6.116 52.9092 6.524C53.1252 6.926 53.3922 7.253 53.7102 7.505C54.0282 7.751 54.3552 7.874 54.6912 7.874C55.1832 7.874 55.5402 7.754 55.7622 7.514C55.9902 7.274 56.1042 6.986 56.1042 6.65C56.1042 6.356 56.0172 6.125 55.8432 5.957C55.6752 5.789 55.4262 5.639 55.0962 5.507L53.7282 4.958C53.2542 4.766 52.9032 4.52 52.6752 4.22C52.4532 3.914 52.3422 3.548 52.3422 3.122C52.3422 2.546 52.5102 2.12 52.8462 1.844C53.1822 1.568 53.6022 1.43 54.1062 1.43C54.5022 1.43 54.9402 1.61 55.4202 1.97C55.4802 2.012 55.5402 2.051 55.6002 2.087C55.6602 2.117 55.7142 2.132 55.7622 2.132C55.8642 2.132 55.9242 2.06 55.9422 1.916L55.9782 1.592H56.1942L56.2842 3.932H56.0682C55.9722 3.5 55.8192 3.116 55.6092 2.78C55.4052 2.444 55.1652 2.183 54.8892 1.997C54.6132 1.811 54.3282 1.718 54.0342 1.718C53.6982 1.718 53.4222 1.829 53.2062 2.051C52.9902 2.267 52.8822 2.57 52.8822 2.96C52.8822 3.23 52.9512 3.44 53.0892 3.59C53.2272 3.74 53.4312 3.869 53.7012 3.977L55.4382 4.67C55.8402 4.832 56.1402 5.063 56.3382 5.363C56.5422 5.663 56.6442 5.978 56.6442 6.308C56.6442 6.626 56.5722 6.926 56.4282 7.208C56.2902 7.49 56.0742 7.721 55.7802 7.901C55.4922 8.075 55.1292 8.162 54.6912 8.162ZM59.3993 8.108C58.8413 8.108 58.3913 7.919 58.0493 7.541C57.7133 7.163 57.5453 6.638 57.5453 5.966C57.5453 5.582 57.6203 5.225 57.7703 4.895C57.9203 4.559 58.1273 4.292 58.3913 4.094C58.6613 3.89 58.9613 3.788 59.2913 3.788C59.6573 3.788 59.9573 3.887 60.1913 4.085C60.4253 4.283 60.5933 4.535 60.6953 4.841C60.8033 5.141 60.8573 5.45 60.8573 5.768C60.8573 5.834 60.8363 5.879 60.7943 5.903C60.7523 5.921 60.6803 5.93 60.5783 5.93H58.3373C58.3373 6.53 58.4213 7.007 58.5893 7.361C58.7633 7.715 59.0453 7.892 59.4353 7.892C59.7113 7.892 59.9693 7.787 60.2093 7.577C60.4553 7.367 60.6113 7.04 60.6773 6.596H60.8933C60.8573 7.034 60.7043 7.397 60.4343 7.685C60.1703 7.967 59.8253 8.108 59.3993 8.108ZM60.0833 5.714C60.0833 5.234 60.0203 4.829 59.8943 4.499C59.7683 4.169 59.5613 4.004 59.2733 4.004C58.9673 4.004 58.7333 4.172 58.5713 4.508C58.4153 4.838 58.3373 5.24 58.3373 5.714H60.0833ZM61.5949 7.784H61.9729C62.0449 7.784 62.0959 7.769 62.1259 7.739C62.1559 7.709 62.1709 7.658 62.1709 7.586V4.31C62.1709 4.238 62.1559 4.187 62.1259 4.157C62.0959 4.127 62.0449 4.112 61.9729 4.112H61.5949V3.896H62.8189V4.796L62.8549 4.805C62.9809 4.493 63.1429 4.247 63.3409 4.067C63.5449 3.881 63.7609 3.788 63.9889 3.788C64.2169 3.788 64.4029 3.854 64.5469 3.986C64.6909 4.118 64.7629 4.298 64.7629 4.526C64.7629 4.658 64.7149 4.787 64.6189 4.913C64.5289 5.039 64.4119 5.102 64.2679 5.102C64.1539 5.102 64.0579 5.072 63.9799 5.012C63.9019 4.952 63.8629 4.868 63.8629 4.76C63.8629 4.634 63.9229 4.526 64.0429 4.436C64.0969 4.4 64.1359 4.367 64.1599 4.337C64.1899 4.307 64.2049 4.268 64.2049 4.22C64.2049 4.166 64.1779 4.124 64.1239 4.094C64.0759 4.058 64.0069 4.04 63.9169 4.04C63.7309 4.04 63.5509 4.13 63.3769 4.31C63.2089 4.49 63.0739 4.724 62.9719 5.012C62.8699 5.3 62.8189 5.6 62.8189 5.912V7.586C62.8189 7.658 62.8339 7.709 62.8639 7.739C62.8939 7.769 62.9449 7.784 63.0169 7.784H63.3949V8H61.5949V7.784ZM65.8353 4.562C65.7753 4.406 65.7123 4.292 65.6463 4.22C65.5863 4.148 65.4933 4.112 65.3673 4.112H65.1063V3.896H67.0503V4.112H66.7983C66.7263 4.112 66.6603 4.133 66.6003 4.175C66.5403 4.211 66.5103 4.262 66.5103 4.328C66.5103 4.43 66.5283 4.529 66.5643 4.625L67.5723 7.055L68.3013 4.922C68.3253 4.85 68.3463 4.769 68.3643 4.679C68.3883 4.589 68.4003 4.517 68.4003 4.463C68.4003 4.361 68.3703 4.277 68.3103 4.211C68.2503 4.145 68.1723 4.112 68.0763 4.112H67.8603V3.896H69.4983V4.112H69.2913C69.1593 4.112 69.0363 4.157 68.9223 4.247C68.8143 4.331 68.7303 4.463 68.6703 4.643L67.4823 8.108H67.3203L65.8353 4.562ZM70.9048 2.78C70.7728 2.78 70.6618 2.735 70.5718 2.645C70.4818 2.555 70.4368 2.444 70.4368 2.312C70.4368 2.174 70.4818 2.063 70.5718 1.979C70.6618 1.889 70.7728 1.844 70.9048 1.844C71.0428 1.844 71.1538 1.889 71.2378 1.979C71.3278 2.063 71.3728 2.174 71.3728 2.312C71.3728 2.444 71.3278 2.555 71.2378 2.645C71.1538 2.735 71.0428 2.78 70.9048 2.78ZM70.0588 7.784H70.4368C70.5088 7.784 70.5598 7.769 70.5898 7.739C70.6198 7.709 70.6348 7.658 70.6348 7.586V4.31C70.6348 4.238 70.6198 4.187 70.5898 4.157C70.5598 4.127 70.5088 4.112 70.4368 4.112H70.0588V3.896H71.2828V7.586C71.2828 7.658 71.2978 7.709 71.3278 7.739C71.3578 7.769 71.4088 7.784 71.4808 7.784H71.8588V8H70.0588V7.784ZM74.3386 8.108C73.9906 8.108 73.6816 8.012 73.4116 7.82C73.1476 7.628 72.9406 7.367 72.7906 7.037C72.6466 6.707 72.5746 6.344 72.5746 5.948C72.5746 5.552 72.6496 5.189 72.7996 4.859C72.9496 4.529 73.1566 4.268 73.4206 4.076C73.6906 3.884 73.9966 3.788 74.3386 3.788C74.6146 3.788 74.8546 3.848 75.0586 3.968C75.2626 4.082 75.4186 4.232 75.5266 4.418C75.6346 4.598 75.6886 4.781 75.6886 4.967C75.6886 5.153 75.6406 5.3 75.5446 5.408C75.4486 5.51 75.3316 5.561 75.1936 5.561C75.0736 5.561 74.9716 5.522 74.8876 5.444C74.8096 5.366 74.7706 5.273 74.7706 5.165C74.7706 5.057 74.8006 4.967 74.8606 4.895C74.9206 4.823 74.9926 4.775 75.0766 4.751C75.1726 4.721 75.2206 4.667 75.2206 4.589C75.2206 4.517 75.1876 4.436 75.1216 4.346C75.0616 4.256 74.9656 4.178 74.8336 4.112C74.7016 4.04 74.5366 4.004 74.3386 4.004C73.9606 4.004 73.7026 4.166 73.5646 4.49C73.4326 4.814 73.3666 5.3 73.3666 5.948C73.3666 6.596 73.4326 7.082 73.5646 7.406C73.6966 7.73 73.9546 7.892 74.3386 7.892C74.7046 7.892 74.9866 7.763 75.1846 7.505C75.3826 7.247 75.5026 6.944 75.5446 6.596H75.7606C75.7426 6.842 75.6796 7.082 75.5716 7.316C75.4636 7.544 75.3046 7.733 75.0946 7.883C74.8846 8.033 74.6326 8.108 74.3386 8.108ZM78.3485 8.108C77.7905 8.108 77.3405 7.919 76.9985 7.541C76.6625 7.163 76.4945 6.638 76.4945 5.966C76.4945 5.582 76.5695 5.225 76.7195 4.895C76.8695 4.559 77.0765 4.292 77.3405 4.094C77.6105 3.89 77.9105 3.788 78.2405 3.788C78.6065 3.788 78.9065 3.887 79.1405 4.085C79.3745 4.283 79.5425 4.535 79.6445 4.841C79.7525 5.141 79.8065 5.45 79.8065 5.768C79.8065 5.834 79.7855 5.879 79.7435 5.903C79.7015 5.921 79.6295 5.93 79.5275 5.93H77.2865C77.2865 6.53 77.3705 7.007 77.5385 7.361C77.7125 7.715 77.9945 7.892 78.3845 7.892C78.6605 7.892 78.9185 7.787 79.1585 7.577C79.4045 7.367 79.5605 7.04 79.6265 6.596H79.8425C79.8065 7.034 79.6535 7.397 79.3835 7.685C79.1195 7.967 78.7745 8.108 78.3485 8.108ZM79.0325 5.714C79.0325 5.234 78.9695 4.829 78.8435 4.499C78.7175 4.169 78.5105 4.004 78.2225 4.004C77.9165 4.004 77.6825 4.172 77.5205 4.508C77.3645 4.838 77.2865 5.24 77.2865 5.714H79.0325ZM80.7421 6.326H80.9041L81.2371 7.037C81.5611 7.607 81.9811 7.892 82.4971 7.892C82.7731 7.892 82.9771 7.826 83.1091 7.694C83.2471 7.556 83.3161 7.37 83.3161 7.136C83.3161 6.998 83.2621 6.875 83.1541 6.767C83.0521 6.653 82.9141 6.563 82.7401 6.497L81.7141 6.083C81.3901 5.951 81.1351 5.792 80.9491 5.606C80.7631 5.42 80.6701 5.183 80.6701 4.895C80.6701 4.529 80.7841 4.253 81.0121 4.067C81.2401 3.881 81.5281 3.788 81.8761 3.788C82.0501 3.788 82.2121 3.818 82.3621 3.878C82.5181 3.932 82.6471 3.998 82.7491 4.076C82.8811 4.172 82.9801 4.22 83.0461 4.22C83.1241 4.22 83.1721 4.166 83.1901 4.058L83.2081 3.878H83.3701V5.246H83.2081L83.0821 4.931C82.9441 4.589 82.7611 4.349 82.5331 4.211C82.3111 4.073 82.0891 4.004 81.8671 4.004C81.6451 4.004 81.4621 4.061 81.3181 4.175C81.1741 4.283 81.1021 4.436 81.1021 4.634C81.1021 4.808 81.1711 4.952 81.3091 5.066C81.4531 5.174 81.6481 5.279 81.8941 5.381L82.8661 5.786C83.1541 5.906 83.3701 6.053 83.5141 6.227C83.6581 6.395 83.7301 6.632 83.7301 6.938C83.7301 7.34 83.6161 7.637 83.3881 7.829C83.1601 8.015 82.8601 8.108 82.4881 8.108C82.2661 8.108 82.0861 8.078 81.9481 8.018C81.8101 7.958 81.6751 7.877 81.5431 7.775C81.4891 7.733 81.4351 7.697 81.3811 7.667C81.3271 7.637 81.2791 7.622 81.2371 7.622C81.0931 7.622 80.9941 7.724 80.9401 7.928L80.9041 8.108H80.7421V6.326ZM88.868 8.162C88.322 8.162 87.893 8.039 87.581 7.793C87.269 7.547 87.113 7.181 87.113 6.695C87.113 6.353 87.239 6.032 87.491 5.732C87.743 5.432 88.043 5.15 88.391 4.886L88.661 4.679L88.571 4.544C88.427 4.328 88.313 4.106 88.229 3.878C88.145 3.644 88.103 3.428 88.103 3.23C88.103 2.93 88.166 2.663 88.292 2.429C88.424 2.189 88.595 2.003 88.805 1.871C89.015 1.739 89.243 1.673 89.489 1.673C89.837 1.673 90.098 1.784 90.272 2.006C90.452 2.222 90.542 2.48 90.542 2.78C90.542 3.116 90.443 3.41 90.245 3.662C90.053 3.914 89.78 4.181 89.426 4.463L90.974 6.659L91.01 6.614C91.22 6.356 91.394 6.077 91.532 5.777C91.67 5.477 91.739 5.24 91.739 5.066C91.739 4.958 91.703 4.871 91.631 4.805C91.565 4.739 91.484 4.706 91.388 4.706H90.983V4.418H93.215V4.706H92.936C92.774 4.706 92.63 4.736 92.504 4.796C92.384 4.856 92.27 4.997 92.162 5.219C91.928 5.693 91.739 6.047 91.595 6.281C91.457 6.509 91.31 6.719 91.154 6.911C91.364 7.205 91.541 7.421 91.685 7.559C91.835 7.697 91.982 7.766 92.126 7.766C92.348 7.766 92.525 7.703 92.657 7.577C92.789 7.451 92.903 7.286 92.999 7.082L93.143 7.154C93.017 7.424 92.861 7.661 92.675 7.865C92.495 8.063 92.243 8.162 91.919 8.162C91.499 8.162 91.073 7.919 90.641 7.433C90.395 7.649 90.119 7.826 89.813 7.964C89.513 8.096 89.198 8.162 88.868 8.162ZM89.246 4.202C89.528 3.986 89.759 3.767 89.939 3.545C90.125 3.323 90.218 3.05 90.218 2.726C90.218 2.516 90.149 2.333 90.011 2.177C89.873 2.021 89.702 1.943 89.498 1.943C89.252 1.943 89.054 2.039 88.904 2.231C88.754 2.417 88.679 2.66 88.679 2.96C88.679 3.152 88.73 3.35 88.832 3.554C88.934 3.758 89.042 3.935 89.156 4.085L89.246 4.202ZM88.976 7.892C89.48 7.892 89.972 7.667 90.452 7.217L90.29 7.01L88.841 4.931L88.751 5.003C88.523 5.183 88.337 5.402 88.193 5.66C88.049 5.912 87.977 6.233 87.977 6.623C87.977 6.905 88.028 7.142 88.13 7.334C88.238 7.52 88.367 7.661 88.517 7.757C88.673 7.847 88.826 7.892 88.976 7.892ZM98.0876 2.402H98.0336V6.992C98.0336 7.214 98.0846 7.391 98.1866 7.523C98.2946 7.649 98.4326 7.712 98.6006 7.712H98.9246V8H96.7826V7.712H97.1066C97.2746 7.712 97.4096 7.649 97.5116 7.523C97.6196 7.391 97.6736 7.214 97.6736 6.992V2.123C97.6736 2.039 97.6526 1.979 97.6106 1.943C97.5746 1.901 97.5146 1.88 97.4306 1.88H96.7826V1.592H98.6906L100.158 6.551L101.526 1.592H103.389V1.88H102.741C102.657 1.88 102.594 1.901 102.552 1.943C102.516 1.979 102.498 2.039 102.498 2.123V7.469C102.498 7.631 102.579 7.712 102.741 7.712H103.389V8H100.779V7.712H101.427C101.589 7.712 101.67 7.631 101.67 7.469V2.159L100.023 8.108H99.8066L98.0876 2.402ZM105.998 8.108C105.668 8.108 105.365 8.012 105.089 7.82C104.813 7.622 104.594 7.358 104.432 7.028C104.276 6.698 104.198 6.338 104.198 5.948C104.198 5.558 104.276 5.198 104.432 4.868C104.594 4.538 104.813 4.277 105.089 4.085C105.365 3.887 105.668 3.788 105.998 3.788C106.328 3.788 106.631 3.887 106.907 4.085C107.183 4.277 107.399 4.538 107.555 4.868C107.717 5.198 107.798 5.558 107.798 5.948C107.798 6.338 107.717 6.698 107.555 7.028C107.399 7.358 107.183 7.622 106.907 7.82C106.631 8.012 106.328 8.108 105.998 8.108ZM105.998 7.892C106.358 7.892 106.616 7.724 106.772 7.388C106.928 7.046 107.006 6.566 107.006 5.948C107.006 5.33 106.928 4.853 106.772 4.517C106.616 4.175 106.358 4.004 105.998 4.004C105.638 4.004 105.38 4.175 105.224 4.517C105.068 4.853 104.99 5.33 104.99 5.948C104.99 6.566 105.068 7.046 105.224 7.388C105.38 7.724 105.638 7.892 105.998 7.892ZM108.572 7.784H108.95C109.022 7.784 109.073 7.769 109.103 7.739C109.133 7.709 109.148 7.658 109.148 7.586V4.31C109.148 4.238 109.133 4.187 109.103 4.157C109.073 4.127 109.022 4.112 108.95 4.112H108.572V3.896H109.796V4.796L109.832 4.805C109.958 4.493 110.12 4.247 110.318 4.067C110.522 3.881 110.738 3.788 110.966 3.788C111.194 3.788 111.38 3.854 111.524 3.986C111.668 4.118 111.74 4.298 111.74 4.526C111.74 4.658 111.692 4.787 111.596 4.913C111.506 5.039 111.389 5.102 111.245 5.102C111.131 5.102 111.035 5.072 110.957 5.012C110.879 4.952 110.84 4.868 110.84 4.76C110.84 4.634 110.9 4.526 111.02 4.436C111.074 4.4 111.113 4.367 111.137 4.337C111.167 4.307 111.182 4.268 111.182 4.22C111.182 4.166 111.155 4.124 111.101 4.094C111.053 4.058 110.984 4.04 110.894 4.04C110.708 4.04 110.528 4.13 110.354 4.31C110.186 4.49 110.051 4.724 109.949 5.012C109.847 5.3 109.796 5.6 109.796 5.912V7.586C109.796 7.658 109.811 7.709 109.841 7.739C109.871 7.769 109.922 7.784 109.994 7.784H110.372V8H108.572V7.784ZM114.208 8.108C113.65 8.108 113.2 7.919 112.858 7.541C112.522 7.163 112.354 6.638 112.354 5.966C112.354 5.582 112.429 5.225 112.579 4.895C112.729 4.559 112.936 4.292 113.2 4.094C113.47 3.89 113.77 3.788 114.1 3.788C114.466 3.788 114.766 3.887 115 4.085C115.234 4.283 115.402 4.535 115.504 4.841C115.612 5.141 115.666 5.45 115.666 5.768C115.666 5.834 115.645 5.879 115.603 5.903C115.561 5.921 115.489 5.93 115.387 5.93H113.146C113.146 6.53 113.23 7.007 113.398 7.361C113.572 7.715 113.854 7.892 114.244 7.892C114.52 7.892 114.778 7.787 115.018 7.577C115.264 7.367 115.42 7.04 115.486 6.596H115.702C115.666 7.034 115.513 7.397 115.243 7.685C114.979 7.967 114.634 8.108 114.208 8.108ZM114.892 5.714C114.892 5.234 114.829 4.829 114.703 4.499C114.577 4.169 114.37 4.004 114.082 4.004C113.776 4.004 113.542 4.172 113.38 4.508C113.224 4.838 113.146 5.24 113.146 5.714H114.892Z" transform="translate(48 42)" fill="#396C9C"/>
</svg>
